<?xml version="1.0" encoding="UTF-8"?>
<svg id="Layer_1" data-name="Layer 1" xmlns="http://www.w3.org/2000/svg" viewBox="0 0 1075.56 363.96">
  <defs>
    <style>
      .cls-1 {
        fill: #fdf198;
      }

      .cls-2 {
        fill: #494949;
      }

      .cls-3 {
        fill: #fcf291;
      }

      .cls-4 {
        fill: #63c4e1;
      }

      .cls-5 {
        fill: #fff;
      }

      .cls-6 {
        fill: #1b2a2f;
      }
    </style>
  </defs>
  <path class="cls-2" d="M294.6,88.61c-.94-8.26-1.19-16.61-.67-24.91.21-3.34.57-6.67.97-9.99.47-3.86.98-7.73,1.86-11.53,1.4-6.02,3.93-11.68,7.24-16.89,3.78-5.95,8.8-11.06,14.86-14.71,2.64-1.59,5.35-3.1,8.26-4.17,3.75-1.37,7.72-1.99,11.71-1.67,6.6.53,12.44,3.65,17.53,7.71,4.72,3.76,8.41,8.43,11.09,13.83s4.24,10.94,5.25,16.7c.87,4.97,1.26,10.02,1.29,15.07.02,3.17-.1,6.35-.41,9.51-.03.34-.07.67-.11,1.01-.03.27.25.49.5.5,6.34.15,12.67.3,19.01.46.25,0,.53-.23.5-.5-.83-7.41-.81-14.91.16-22.3.36-2.76.89-5.48,1.49-8.2.77-3.45,1.58-6.91,2.87-10.21,2.02-5.17,5.31-9.94,9.26-13.83s9.09-7.02,14.59-8.59c5.21-1.49,10.79-1.85,16.14-.96s10.33,2.76,14.77,5.66c5.51,3.59,9.72,8.72,12.05,14.87s3.21,13.1,4.08,19.71c.93,7.03.9,14.13.46,21.19-.47,7.49-1.57,14.93-3.27,22.24-.35,1.48-.72,2.96-1.11,4.43-.06.22.04.45.23.56,7.85,4.7,15.79,11.63,17.71,20.99s-3.39,17.82-9.76,24.12c-5.76,5.69-12.63,10.19-19.7,14.08-4.58,2.53-9.29,4.78-14.25,6.48-6.15,2.1-12.52,3.39-18.93,4.4-6.93,1.09-13.89,2-20.9,2.34s-13.45.17-20.16-.26-13.95-1.14-20.92-1.82-13.47-1.33-20.16-2.38-13.71-2.58-20.41-4.54c-6.15-1.79-12.31-3.66-18.36-5.79-8.9-3.13-18.19-7.18-23.69-15.23s-7.42-19.27-3.59-28.56c3.51-8.52,11.2-14.6,19.75-17.59.79-.28,1.59-.53,2.41-.74.62-.16.36-1.13-.27-.96-7.01,1.85-13.75,5.91-18.36,11.52-4.05,4.93-6.42,11.1-6.57,17.49-.12,5.13,1.11,10.26,3.26,14.91,1.6,3.46,3.82,6.61,6.59,9.24,3.41,3.23,7.52,5.63,11.78,7.57,5.21,2.37,10.67,4.16,16.12,5.87,6.81,2.14,13.64,4.26,20.61,5.82,13.7,3.06,27.77,4.16,41.72,5.42,6.86.62,13.74,1.13,20.64,1.21s14.32-.29,21.43-1.19c6.59-.83,13.21-1.8,19.68-3.3,6.87-1.6,13.54-3.98,19.8-7.25,6.61-3.45,13.03-7.33,18.8-12.06,6.94-5.69,13.71-13.25,14.74-22.54,1.17-10.53-6.03-19.32-14.04-25.16-1.43-1.05-2.92-2.02-4.44-2.93l.23.56c1.85-6.9,3.16-13.94,3.92-21.04s1.09-14.57.58-21.81c-.28-3.94-.86-7.85-1.46-11.75-.51-3.3-1.09-6.61-1.99-9.83-1.72-6.16-4.8-11.73-9.6-16.01s-10.43-6.93-16.48-8.36c-5.08-1.2-10.37-1.34-15.51-.44-5.61.98-10.92,3.28-15.44,6.76-4.14,3.19-7.66,7.34-10.31,11.84-3.49,5.92-5.04,12.8-6.28,19.5s-1.69,13.66-1.38,20.53c.1,2.12.27,4.23.5,6.34l.5-.5c-6.34-.15-12.67-.3-19.01-.46l.5.5c.29-2.56.43-5.15.49-7.72.11-4.86-.13-9.73-.76-14.56-.76-5.8-2.09-11.55-4.3-16.97-2.33-5.7-5.64-11.03-10.15-15.27s-9.54-7.57-15.27-9.26c-3.93-1.15-8.08-1.42-12.13-.78-3.56.56-6.95,1.84-10.13,3.51-6.35,3.32-11.97,7.7-16.37,13.39-3.56,4.6-6.48,9.91-8.43,15.39-2.53,7.12-3.34,14.83-4.09,22.31s-.88,15.37-.37,23.04c.15,2.32.36,4.64.63,6.95.07.63,1.07.64,1,0Z"/>
  <path class="cls-2" d="M366.52,61.98c-.01,8.23-1.47,16.59-4.88,24.12-2.69,5.95-6.72,11.7-12.47,15.02-4.99,2.88-10.98,3.32-16.26.93-5.87-2.66-10.17-7.95-13.11-13.55-3.75-7.15-5.58-15.27-5.97-23.3s.72-16.92,3.72-24.77c2.4-6.26,6.15-12.44,11.68-16.4,4.72-3.38,10.59-4.68,16.19-2.88,5.98,1.92,10.59,6.78,13.77,12.03,4.09,6.74,6.26,14.59,7.02,22.4.21,2.13.3,4.26.31,6.4,0,.64,1,.64,1,0-.01-8.45-1.54-16.99-5.05-24.71-2.78-6.1-6.98-11.99-12.91-15.37-5.22-2.97-11.39-3.38-16.9-.97-6.08,2.66-10.59,8.12-13.63,13.87-3.88,7.32-5.77,15.62-6.18,23.85s.74,17.43,3.88,25.47c2.52,6.44,6.39,12.69,12.12,16.74,4.88,3.45,11.02,4.75,16.78,2.92,6.19-1.96,10.97-6.89,14.3-12.3,4.23-6.89,6.46-14.91,7.27-22.91.22-2.19.32-4.39.33-6.6,0-.64-1-.64-1,0Z"/>
  <path class="cls-2" d="M460.64,61.99c0,7.04-.92,14.12-3.03,20.85-1.7,5.41-4.2,10.79-8.05,15.01-1.73,1.89-3.74,3.52-6.06,4.6l.73.3c-1.14-7.52-7.82-12.97-15.27-13.45-2.61-.17-5.26.27-7.68,1.26l.56.23c-4.82-9.3-6.49-20.15-6.26-30.54.21-9.54,2.07-19.45,6.7-27.89,3.12-5.68,8.25-11.69,15.22-12.02s12.29,5.13,15.61,10.62c4.87,8.05,6.94,17.72,7.42,27.03.07,1.33.1,2.67.1,4,0,.64,1,.64,1,0-.01-9.96-1.75-20.28-6.35-29.19-3.14-6.08-8.29-12.44-15.53-13.37s-12.83,3.99-16.53,9.44c-5.34,7.86-7.69,17.64-8.43,26.99-.86,10.85.39,22.23,4.7,32.29.45,1.06.95,2.1,1.48,3.13.09.18.37.31.56.23,7.07-2.91,15.7-.55,19.76,6.08,1.02,1.66,1.67,3.5,1.96,5.42.05.35.48.42.73.3,4.55-2.12,7.93-6.2,10.38-10.46,3.23-5.59,5.15-11.92,6.22-18.26.7-4.16,1.04-8.38,1.04-12.59,0-.64-1-.64-1,0Z"/>
  <path class="cls-2" d="M417.44,103.79c-.05,7.55-5.67,13.84-12.91,15.47-6.36,1.43-13.27-.84-17.33-5.98s-4.38-11.88-1.17-17.28,9.67-8.53,16-8.06c7.14.53,13.58,5.64,15.09,12.75.22,1.02.31,2.06.32,3.1,0,.64,1,.64,1,0-.06-7.89-5.85-14.58-13.43-16.39-6.75-1.6-14.17.72-18.52,6.18s-4.77,12.56-1.41,18.36,10.3,9.23,17.07,8.68c7.62-.62,14.54-6.11,15.99-13.78.19-1.01.29-2.03.29-3.06,0-.64-1-.64-1,0Z"/>
  <path class="cls-2" d="M443.39,104.97c-.03,4.84-2.55,9.34-6.56,12.02-4.32,2.89-9.91,3.48-14.77,1.64-2.81-1.06-5.29-2.94-7.05-5.38v.5c4.16-5.43,4.52-12.89.88-18.68l-.08.61c3.6-4.14,9.21-6.11,14.61-5.24,4.35.7,8.37,3.19,10.74,6.93,1.45,2.28,2.2,4.89,2.22,7.59,0,.64,1.01.64,1,0-.04-4.92-2.44-9.45-6.36-12.39-4.19-3.13-9.79-4.09-14.82-2.7-3.13.87-5.97,2.64-8.1,5.1-.14.16-.2.41-.08.61,3.47,5.53,3.07,12.51-.88,17.68-.1.13-.09.38,0,.5,3.42,4.72,9.16,7.31,14.96,6.88,5.16-.38,10.02-3.1,12.85-7.47,1.58-2.44,2.41-5.3,2.43-8.21,0-.64-1-.64-1,0Z"/>
  <path class="cls-2" d="M358.88,60.37c0,4.31-.42,8.65-1.52,12.82-.74,2.82-1.78,5.97-3.89,8.09-.65.65-1.45,1.22-2.39,1.34s-1.82-.27-2.54-.83c-2.18-1.73-3.29-4.74-4.07-7.3-1.22-4-1.74-8.22-1.86-12.39-.13-4.41.19-8.87,1.16-13.18.68-3.03,1.65-6.3,3.61-8.77,1.2-1.51,3.01-2.67,4.9-1.62,2.27,1.27,3.49,4.18,4.3,6.5,1.34,3.82,1.96,7.89,2.19,11.92.07,1.14.09,2.28.1,3.43,0,.64,1,.64,1,0,0-4.57-.46-9.2-1.69-13.62-.81-2.89-1.97-6.14-4.23-8.23-1.65-1.53-3.88-1.9-5.76-.54-2.39,1.72-3.64,4.8-4.51,7.5-1.35,4.19-1.91,8.65-2.05,13.04-.14,4.66.21,9.39,1.28,13.94.75,3.18,1.84,6.6,4.01,9.11,1.44,1.67,3.56,2.65,5.68,1.61,2.46-1.21,3.83-4.16,4.74-6.58,1.52-4,2.18-8.33,2.44-12.59.07-1.22.11-2.43.11-3.65,0-.64-1-.64-1,0Z"/>
  <path class="cls-2" d="M444.39,60.37c0,4.31-.42,8.65-1.52,12.82-.74,2.82-1.78,5.97-3.89,8.09-.65.65-1.45,1.22-2.39,1.34s-1.82-.27-2.54-.83c-2.18-1.73-3.29-4.74-4.07-7.3-1.22-4-1.74-8.22-1.86-12.39-.13-4.41.19-8.87,1.16-13.18.68-3.03,1.65-6.3,3.61-8.77,1.2-1.51,3.01-2.67,4.9-1.62,2.27,1.27,3.49,4.18,4.3,6.5,1.34,3.82,1.96,7.89,2.19,11.92.07,1.14.09,2.28.1,3.43,0,.64,1,.64,1,0,0-4.57-.46-9.2-1.69-13.62-.81-2.89-1.97-6.14-4.23-8.23-1.65-1.53-3.88-1.9-5.76-.54-2.39,1.72-3.64,4.8-4.51,7.5-1.35,4.19-1.91,8.65-2.05,13.04-.14,4.66.21,9.39,1.28,13.94.75,3.18,1.84,6.6,4.01,9.11,1.44,1.67,3.56,2.65,5.68,1.61,2.46-1.21,3.83-4.16,4.74-6.58,1.52-4,2.18-8.33,2.44-12.59.07-1.22.11-2.43.11-3.65,0-.64-1-.64-1,0Z"/>
  <path class="cls-2" d="M277.96,141.17c-4.55,5.86-7.42,13.2-7.74,20.63-.45,10.38,4.32,20.33,12.05,27.13,4.39,3.87,9.62,6.7,15.2,8.43.22.07.45-.05.56-.23,4.74-7.33,10.73-14.27,18.59-18.35,2.69-1.39,5.54-2.37,8.5-2.97,2.13-.43,4.28-.72,6.41-1.15,1.8-.36,3.69-.81,5.28-1.77,1.7-1.03,2.76-2.74,2.58-4.77-.23-2.59-1.87-4.89-3.46-6.85-.41-.5-1.11.21-.71.71,1.43,1.77,3.05,3.96,3.18,6.32.1,1.8-.94,3.11-2.46,3.93-1.67.9-3.62,1.27-5.46,1.62-2.05.38-4.12.67-6.15,1.1-6.35,1.36-12.02,4.69-16.78,9.05-4.03,3.69-7.42,8.04-10.38,12.62l.56-.23c-9.47-2.94-17.93-9.25-22.68-18.05-2.42-4.5-3.79-9.55-3.87-14.67-.07-4.81.99-9.61,2.91-14.01.78-1.77,1.68-3.49,2.72-5.12.36-.57.74-1.13,1.13-1.68.14-.2.29-.4.44-.6.11-.15.25-.34.28-.37.39-.5-.31-1.21-.71-.71h0Z"/>
  <path class="cls-2" d="M335.15,161.88c1.99,4.65,3.57,9.55,4.18,14.58.2,1.64.22,3.28.31,4.93.14,2.45.71,4.85,1.86,7.03,1.74,3.3,4.86,6.1,8.2,7.68,3.87,1.83,8.25,2.37,12.49,2.29,2.92-.06,5.87-.38,8.72-1.03.63-.14.36-1.11-.27-.96-2.31.53-4.68.82-7.04.95-4.1.22-8.32-.1-12.18-1.58-3.63-1.39-6.91-4.1-8.86-7.48-1.16-2-1.75-4.31-1.91-6.61-.11-1.6-.1-3.2-.28-4.79-.59-5.37-2.24-10.56-4.36-15.51-.25-.59-1.11-.08-.86.5h0Z"/>
  <path class="cls-2" d="M358.85,197.91c-.48,3.98-.08,8.09,1.13,11.91,1.78,5.61,5.34,10.51,10.05,14.01,5,3.72,11.23,5.94,17.45,6.3,3.85.22,7.8-.11,11.52-1.16s7.65-2.98,10.18-6.02c.71-.85,1.28-1.81,1.81-2.78,1.11-2.01,2.06-4.1,3-6.2,2.5-5.61,4.79-11.31,6.88-17.09.19-.52.38-1.05.56-1.58s.53-1.02.81-1.52c.67-1.21,1.26-2.46,1.81-3.73,1.05-2.41,1.99-4.88,2.51-7.46,1.1-5.41.17-10.94-3.15-15.41-.94-1.27-2.01-2.41-3.19-3.46-.48-.43-1.19.28-.71.71,4.19,3.73,6.71,8.69,6.51,14.37-.1,2.85-.83,5.65-1.83,8.31-.89,2.37-1.95,4.71-3.23,6.9-.53.9-.81,1.92-1.17,2.9-.42,1.16-.85,2.32-1.29,3.48-1.1,2.89-2.24,5.76-3.44,8.61s-2.35,5.51-3.66,8.2c-.68,1.39-1.37,2.78-2.22,4.07-1.66,2.54-4.48,4.38-7.27,5.61-3.86,1.69-8.15,2.32-12.34,2.31-5.57-.01-11.07-1.43-15.97-4.23s-8.64-6.7-11.09-11.58c-2.13-4.25-3.07-9.06-2.8-13.8.03-.56.08-1.12.15-1.68.08-.64-.92-.63-1,0h0Z"/>
  <path class="cls-2" d="M452.17,155.44c3.25,4.06,4.7,9.47,3.93,14.62s-3.85,9.22-7.15,13.05c-1.38,1.6-2.78,3.26-4.54,4.44-1.51,1.02-3.17,1.8-4.86,2.46-3.61,1.41-7.4,2.35-11.19,3.1-2.41.48-4.84.89-7.28,1.16-.63.07-.64,1.07,0,1,6.09-.68,12.3-1.9,18.06-4.03,1.81-.67,3.61-1.45,5.25-2.48,1.82-1.13,3.26-2.66,4.68-4.26,3.39-3.83,6.75-8,7.81-13.13,1.21-5.82-.29-11.99-4-16.62-.4-.5-1.11.21-.71.71h0Z"/>
  <path class="cls-2" d="M296.41,280.02c3.05-1.73,5.82-4.32,6.59-7.87.6-2.79-.21-5.56-1.33-8.11-1.32-3.02-3.04-5.85-4.41-8.85-1.57-3.45-2.66-7.12-2.7-10.93-.04-3.37,1.12-6.4,2.38-9.48,1.54-3.76,3.1-7.52,4.83-11.19,3.8-8.06,8.8-15.46,15.38-21.52,5.66-5.21,12.29-9.33,19.37-12.33,1.22-.52,2.46-1,3.7-1.45.6-.22.34-1.18-.27-.96-7.87,2.86-15.28,6.98-21.67,12.41s-11.74,12.37-15.69,19.93c-1.74,3.32-3.23,6.76-4.68,10.21-.91,2.14-1.83,4.28-2.67,6.45-.56,1.46-1.09,2.94-1.4,4.47-1.44,7.14,2,13.99,5.19,20.13,1.34,2.58,2.85,5.33,3.13,8.28s-1.03,5.81-3.27,7.84c-.91.82-1.92,1.5-2.99,2.1-.56.32-.06,1.18.5.86h0Z"/>
  <path class="cls-2" d="M338.03,188.06c-5.23,3.9-9.85,8.78-12.54,14.78-1.23,2.75-1.92,5.57-2.3,8.55-.41,3.23-1.01,6.31-2.32,9.32s-3.16,5.81-5.25,8.44c-1.57,1.97-2.82,3.98-3.33,6.49-.85,4.2.46,8.51,2.14,12.33,1.13,2.56,2.46,5.1,4.12,7.37,1.53,2.1,3.3,4.04,5.1,5.91,3.39,3.51,6.98,6.82,10.61,10.09,5.32,4.79,10.81,9.38,16.19,14.11s10.87,10.23,15.59,15.98c4.99,6.08,9.04,12.96,11.98,20.24,2.13,5.27,3.52,10.73,4.71,16.27.83,3.88,1.64,7.76,2.39,11.65.44,2.27.78,4.58,1.35,6.82.28,1.09.68,2.08,1.42,2.94,1.57,1.83,3.81,2.99,6.09,3.66,5.49,1.61,11.54.88,17.07-.13,2.62-.48,5.25-1.02,7.81-1.73,3.34-.92,6.57-2.21,9.68-3.74,3.48-1.72,6.82-3.7,10.16-5.66,2.98-1.76,5.97-3.55,8.65-5.74,1.39-1.14,2.68-2.41,3.7-3.9.75-1.09,1.35-2.28,1.88-3.49,2.08-4.7,3.46-11.14-.75-15.13-2.04-1.94-4.85-2.73-7.58-3.05-2.87-.33-5.79-.14-8.66.17-3.43.38-6.8.94-10.09,2s-6.25,2.42-9.13,4.12c-2.27,1.34-4.42,2.86-6.46,4.53l.79.1c-4.95-10.63-9.32-21.5-13.45-32.47-1.49-3.96-2.95-7.95-4.91-11.7-1.79-3.42-4.04-6.58-6.58-9.47-4.32-4.91-9.52-8.99-15.12-12.34-.55-.33-1.06.53-.5.86,8.45,5.04,16.08,11.89,20.87,20.57,1.96,3.56,3.41,7.37,4.84,11.16,2.21,5.85,4.41,11.69,6.79,17.47s4.68,11,7.2,16.42c.15.32.56.29.79.1,4.68-3.83,10.04-6.85,15.84-8.61,3.17-.97,6.43-1.48,9.72-1.82,2.84-.29,5.75-.46,8.58-.04,2.66.39,5.41,1.34,7.12,3.52s1.95,5.27,1.45,7.99c-.42,2.28-1.25,4.48-2.3,6.54-.52,1.01-1.09,1.99-1.8,2.87-1.34,1.65-3.02,3.01-4.73,4.24-3.11,2.23-6.45,4.12-9.76,6.04-3.11,1.8-6.26,3.56-9.56,5.01s-6.43,2.43-9.79,3.18c-5.11,1.14-10.31,2.15-15.57,2.01-2.72-.07-5.54-.46-8.03-1.63-1.55-.73-3.23-1.87-4.06-3.34-.61-1.07-.82-2.45-1.07-3.69-.61-3.09-1.18-6.2-1.81-9.29-1.25-6.09-2.39-12.25-4.29-18.19-2-6.28-4.83-12.32-8.33-17.9-4.14-6.62-9.35-12.51-14.87-18-4.93-4.9-10.3-9.31-15.54-13.86-4.65-4.04-9.27-8.13-13.73-12.4-2.5-2.39-4.96-4.83-7.21-7.46-1.18-1.38-2.25-2.78-3.2-4.35-2.36-3.91-4.51-8.38-4.96-12.98-.14-1.46-.08-2.91.26-4.34.57-2.43,1.93-4.3,3.45-6.21,2.11-2.65,3.86-5.47,5.17-8.6,1.2-2.88,1.79-5.82,2.17-8.9.36-2.92,1-5.72,2.21-8.41,1.1-2.45,2.53-4.76,4.22-6.86,2.3-2.87,5.02-5.37,7.96-7.56.51-.38.01-1.25-.5-.86h0Z"/>
  <path class="cls-2" d="M416.31,206.53c.13,6.28-.44,12.53-1.55,18.71-.92,5.12-2.26,10.1-4.49,14.81-2.37,5.02-5.62,9.63-9.67,13.43-4.66,4.37-10.32,7.56-16.39,9.5-4.35,1.39-8.88,2.17-13.44,2.35-.64.02-.64,1.02,0,1,10.25-.39,20.47-3.77,28.45-10.3,8.65-7.08,13.93-17.39,16.08-28.23,1.39-7.01,2.16-14.11,2.01-21.26-.01-.64-1.01-.64-1,0h0Z"/>
  <path class="cls-2" d="M339.65,275.58c-3.8,5.46-7.97,10.66-12.46,15.57-3.45,3.78-7.15,7.25-11,10.61-2.61,2.28-5.19,4.59-7.77,6.91-1.5,1.34-3.06,2.65-4.46,4.1-1.23,1.27-1.84,3.29-2.17,4.98-.48,2.51-.34,5.1.13,7.6,1.1,5.79,4,11.26,7.74,15.77,4.3,5.18,9.99,8.9,16.4,10.92,2.55.8,5.17,1.33,7.81,1.71,3.22.47,6.49.99,9.75.83,3.62-.18,6.99-1.38,9.87-3.58,2.59-1.98,4.85-4.64,5.92-7.76.84-2.45.79-5.23-.57-7.49-1.23-2.04-3.25-3.51-5.2-4.81-6.05-4.02-12.58-7.47-19.37-10.06-1.25-.48-2.51-.93-3.79-1.35l.12.91c9.28-5.12,17.25-12.55,22.75-21.63,1.41-2.32,2.65-4.75,3.71-7.24.25-.59-.61-1.1-.86-.5-4.28,10-11.38,18.64-20.28,24.89-1.87,1.31-3.82,2.52-5.82,3.63-.39.22-.27.78.12.91,6.41,2.13,12.45,5.04,18.27,8.46,2.59,1.52,5.3,3.02,7.54,5.03,1.55,1.39,2.71,3.09,2.91,5.21.32,3.28-1.44,6.41-3.59,8.76-2.32,2.53-5.3,4.45-8.66,5.22-3.59.82-7.31.33-10.91-.16-2.28-.31-4.56-.66-6.8-1.2-6.34-1.54-12.19-4.61-16.76-9.32-4.06-4.18-7.21-9.42-8.79-15.04-.7-2.49-1.09-5.09-.92-7.68.14-2.06.66-4.37,1.91-6.06-.11.14.04-.04.07-.07.07-.07.13-.14.2-.21.22-.22.44-.43.66-.64.69-.65,1.39-1.28,2.09-1.91,2.52-2.28,5.06-4.54,7.61-6.79,3.53-3.11,7.05-6.17,10.33-9.56,4.22-4.35,8.15-9.01,11.79-13.85,1.14-1.51,2.25-3.05,3.33-4.6.37-.53-.5-1.03-.86-.5h0Z"/>
  <path class="cls-2" d="M437.57,192.16c4.62,6.73,9.24,13.45,13.85,20.18,2.14,3.12,4.26,6.24,6.4,9.36,1.02,1.49,2.04,3.01,3.3,4.31,5.45,5.59,13.06,8.36,19.67,12.25,3.42,2.02,6.68,4.37,9.16,7.52,2.28,2.91,3.85,6.35,4.61,9.96,1.52,7.27-.45,15.04-5.52,20.51-2.89,3.12-6.67,5.31-10.94,5.77s-8.25-.52-11.95-2.27c-1.85-.88-3.61-1.95-5.24-3.2s-3.51-2.71-4.24-4.63.42-3.88,1.06-5.69.64-3.62-.52-5.24-2.85-2.76-4.25-4.16c-1.51-1.52-2.81-3.24-3.86-5.1-1.98-3.53-3.02-7.58-2.83-11.63.11-2.33.87-4.69.34-7.01-.4-1.76-1.37-3.32-2.58-4.63-1.34-1.46-2.79-2.84-4.2-4.23-5.33-5.27-10.74-10.46-16.18-15.62-1.79-1.7-3.59-3.4-5.39-5.1-.47-.44-1.18.26-.71.71,6.31,5.94,12.58,11.93,18.78,17.98,1.82,1.78,3.63,3.56,5.42,5.36.66.67,1.35,1.33,1.96,2.05,1.43,1.7,2.21,3.74,2.05,5.97-.08,1.23-.34,2.44-.44,3.66-.09,1.01-.1,2.03-.04,3.04.12,2.02.51,4.02,1.17,5.94,1.35,3.95,3.73,7.51,6.83,10.29,1.43,1.28,3.41,2.62,3.85,4.62s-.92,3.89-1.44,5.72c-.58,2.02-.06,3.79,1.26,5.39s2.98,2.88,4.65,4.03c6.68,4.6,15.83,6.78,23.24,2.6,6.75-3.81,10.82-11.43,11.19-19.05s-2.72-14.87-8.28-19.85c-6.24-5.59-14.41-8.22-21.28-12.88-2.15-1.46-4.23-3.12-5.84-5.18-1.77-2.27-3.32-4.73-4.94-7.11-4.7-6.87-9.41-13.72-14.12-20.58-1.05-1.53-2.1-3.05-3.14-4.58-.36-.53-1.23-.03-.86.5h0Z"/>
  <path class="cls-2" d="M469.27,260.36c2.34,3.22,3.21,7.36,2.11,11.22-.39,1.37-1,2.73-2.01,3.76-1.26,1.29-2.99,1.84-4.76,1.75-2.25-.12-4.39-1.18-6.09-2.61-.49-.41-1.2.29-.71.71,3.05,2.55,7.86,4.21,11.4,1.61,2.97-2.18,3.93-6.53,3.57-10-.26-2.51-1.18-4.9-2.66-6.94-.37-.52-1.24-.02-.86.5h0Z"/>
  <path class="cls-2" d="M478.81,257.44c2.3,2.17,4.19,4.8,5.33,7.76,1.45,3.75,1.65,7.86.64,11.74-.32,1.24-.76,2.46-1.32,3.62-.28.58.59,1.09.86.5,1.28-2.69,2.02-5.64,2.09-8.62.1-4.3-1.27-8.53-3.72-12.04-.93-1.33-2-2.56-3.18-3.67-.47-.44-1.18.27-.71.71h0Z"/>
  <path class="cls-2" d="M485.77,252.73c4.97,3.9,8.09,9.78,7.85,16.16-.02.64.98.64,1,0,.25-6.62-2.98-12.82-8.14-16.87-.5-.39-1.21.31-.71.71h0Z"/>
  <path class="cls-2" d="M334.32,172.94c-7.32.11-14.37,2.45-20.34,6.68-5.05,3.58-9.16,8.21-12.98,13.04-1.65,2.09-3.27,4.18-4.74,6.4-1.68,2.55-3.21,5.19-4.69,7.85-3.39,6.07-6.53,12.29-10.21,18.19-2.18,3.49-4.5,6.89-6.96,10.2-.84,1.13-1.81,2.15-2.68,3.27-1.04,1.34-2.01,2.74-2.89,4.19-3.68,6.11-5.82,13.3-5.6,20.46.11,3.57.44,7.23,2.25,10.39s4.69,5.41,7.9,6.89,7.17,2.19,10.84,2.3c3.23.1,6.59-.36,9.68-1.31,1.65-.51,3.49-1.46,2.69-3.5-.49-1.26-1.38-2.37-2.05-3.53-.88-1.53-1.62-3.13-2.18-4.8-.59-1.77-1.06-3.58-1.55-5.38-.25-.93-.5-1.86-.7-2.8-.15-.68-.33-1.4-.31-2.1,0-.04.04-.26.02-.28-.11-.14.31.14-.12.03-.1-.02-.13-.03-.06.03.17.17.45.41.65.64.86.96,1.67,1.96,2.54,2.9,1.31,1.42,2.7,2.75,4.17,4.01.49.42,1.2-.29.71-.71-2.46-2.11-4.55-4.5-6.7-6.91-.36-.4-.86-1.04-1.47-.95-1.06.15-.72,1.82-.61,2.5.29,1.8.82,3.56,1.3,5.32s.91,3.38,1.53,5.02,1.43,3.22,2.34,4.73c.36.6.75,1.19,1.11,1.8.23.39.5.82.56,1.27.09.61-.26.93-.74,1.19-1.24.69-2.75.94-4.13,1.23-3.47.72-6.94.76-10.45.26s-6.76-1.56-9.66-3.57c-3.32-2.3-5.47-5.69-6.15-9.66-1.16-6.73-.12-13.85,2.55-20.1,1.41-3.3,3.29-6.42,5.53-9.22.85-1.06,1.77-2.05,2.58-3.14,1.12-1.51,2.22-3.04,3.28-4.6,4.02-5.85,7.44-12.02,10.83-18.25,3.01-5.54,5.98-11.16,9.73-16.24,3.37-4.56,7.02-9.07,11.23-12.88,5.32-4.81,11.7-8.26,18.82-9.41,1.69-.27,3.4-.41,5.11-.43.64,0,.64-1.01,0-1h0Z"/>
  <path class="cls-2" d="M271.58,263.67c-.91,6.61,1.35,13.33,5.95,18.15.45.47,1.15-.24.71-.71-4.33-4.53-6.55-10.94-5.69-17.17.09-.63-.88-.9-.96-.27h0Z"/>
  <path class="cls-2" d="M280.96,265.49c-.63,6.06,1.81,12.19,6.26,16.32.47.44,1.18-.27.71-.71-4.27-3.97-6.57-9.79-5.97-15.61.07-.64-.93-.63-1,0h0Z"/>
  <path class="cls-2" d="M417.29,144.84c3.31,1.05,6.85,1.29,10.27.71s6.68-2.19,9.8-3.82c.57-.3.07-1.16-.5-.86-2.98,1.56-6,3.09-9.34,3.69s-6.76.34-9.97-.67c-.61-.19-.88.77-.27.96h0Z"/>
  <path class="cls-2" d="M328.8,329.67c3.96,1.3,7.28,3.99,10.44,6.63,1.54,1.29,3,2.68,3.93,4.49s1.26,3.71,1.36,5.66c.11,2.23-.11,4.46-.35,6.68-.07.64.93.63,1,0,.44-4.01.84-8.31-.8-12.11-.83-1.93-2.2-3.48-3.77-4.85s-3.33-2.78-5.08-4.03c-1.99-1.43-4.13-2.65-6.46-3.42-.61-.2-.88.76-.27.96h0Z"/>
  <path class="cls-2" d="M433.33,328.85c3.95.21,7.81,1.96,10.46,4.92s3.95,7.36,3.2,11.4c-.12.63.85.9.96.27.63-3.38.04-6.91-1.67-9.9s-4.32-5.12-7.39-6.42c-1.77-.75-3.65-1.17-5.56-1.27-.64-.03-.64.97,0,1h0Z"/>
  <path class="cls-2" d="M443.76,325.91c4.32.26,8.42,3.32,9.53,7.56.16.62,1.13.36.96-.27-1.23-4.69-5.74-8.01-10.5-8.3-.64-.04-.64.96,0,1h0Z"/>
  <path class="cls-2" d="M349.56,334.08c4.65,2.41,7.52,7.87,6.33,13.07-.14.63.82.89.96.27,1.29-5.62-1.73-11.57-6.79-14.2-.57-.3-1.08.57-.5.86h0Z"/>
  <path class="cls-2" d="M885.84,93.24c-.92-8.72-1.17-17.51-.7-26.27.18-3.4.5-6.79.87-10.18.46-4.21.95-8.42,1.78-12.57,1.31-6.56,3.75-12.76,7.06-18.57,3.6-6.3,8.42-11.91,14.45-16.01,2.74-1.87,5.64-3.64,8.72-4.89,3.88-1.58,8.05-2.31,12.23-1.92,6.81.63,12.62,4.21,17.68,8.59,4.77,4.13,8.37,9.31,10.95,15.05s4.13,11.76,5.1,17.88c.84,5.31,1.22,10.7,1.24,16.08.01,3.38-.1,6.77-.41,10.14-.03.36-.07.72-.1,1.08-.03.27.25.49.5.5,6.34.16,12.67.33,19.01.49.25,0,.53-.24.5-.5-.81-7.84-.81-15.75.11-23.58.33-2.82.79-5.63,1.36-8.41.76-3.73,1.54-7.47,2.77-11.08,1.92-5.66,5.14-10.93,9.17-15.34s9.17-7.88,14.92-9.67c5.33-1.65,11.13-2.02,16.56-.99s10.92,3.35,15.43,6.78c5.46,4.15,9.27,9.84,11.38,16.33,1.05,3.24,1.73,6.58,2.29,9.93.64,3.88,1.18,7.79,1.61,11.69.8,7.39.72,14.85.25,22.26-.5,7.85-1.59,15.66-3.26,23.35-.34,1.54-.69,3.08-1.07,4.61-.06.22.04.44.23.56,7.93,5.12,15.5,12.48,17.58,22.02,1.06,4.87.45,9.88-1.42,14.47s-4.65,8.34-7.86,11.83c-5.69,6.16-12.6,11.11-19.77,15.4-4.46,2.67-9.05,5.08-13.92,6.92-6.21,2.35-12.7,3.8-19.23,4.92-7.02,1.2-14.07,2.21-21.2,2.57s-13.89.17-20.81-.32-14.26-1.28-21.38-2.03-13.79-1.5-20.62-2.73-14.09-3.05-20.94-5.29c-6-1.97-12.04-3.89-17.92-6.2-4.69-1.85-9.33-3.98-13.46-6.9-3.78-2.68-6.98-6.07-9.29-10.09-5.21-9.07-6.59-20.61-2.58-30.37,3.52-8.57,10.92-15.04,19.51-18.26.77-.29,1.56-.55,2.35-.78.62-.18.36-1.14-.27-.96-7.02,1.99-13.61,6.34-18.11,12.08-4.05,5.17-6.42,11.52-6.78,18.08-.3,5.54.78,11.14,2.86,16.27,1.46,3.59,3.44,6.94,6.03,9.83,3.21,3.57,7.22,6.31,11.46,8.51,5.01,2.6,10.35,4.54,15.68,6.37,6.83,2.35,13.69,4.68,20.7,6.45,13.87,3.5,28.2,4.75,42.4,6.14,7.09.7,14.19,1.29,21.32,1.39s14.56-.31,21.78-1.29c6.73-.91,13.5-1.98,20.08-3.67,6.98-1.79,13.68-4.46,19.93-8.05s12.85-7.89,18.46-12.91c7.08-6.34,13.62-14.59,14.46-24.4.93-10.93-5.94-20.33-14.17-26.74-1.4-1.09-2.85-2.12-4.35-3.09l.23.56c1.8-7.27,3.1-14.66,3.86-22.11s1.12-15.35.7-22.99c-.23-4.2-.79-8.36-1.36-12.52-.5-3.61-1.05-7.22-1.9-10.76-1.54-6.43-4.25-12.45-8.85-17.28s-10.54-8.13-16.91-9.87c-5.19-1.41-10.63-1.63-15.93-.66-5.9,1.08-11.4,3.73-15.97,7.61-4.29,3.64-7.89,8.4-10.45,13.4-1.74,3.41-2.94,7.05-3.85,10.76-.79,3.24-1.47,6.51-2.01,9.8-1.19,7.18-1.61,14.48-1.29,21.75.1,2.24.27,4.47.5,6.7l.5-.5c-6.34-.16-12.67-.33-19.01-.49l.5.5c.29-2.73.43-5.48.49-8.22.11-5.17-.11-10.36-.72-15.5-.73-6.17-2.01-12.3-4.17-18.14s-5.39-11.72-9.82-16.38c-1.92-2.02-4.08-3.85-6.32-5.51-2.8-2.08-5.89-3.8-9.22-4.89-4.03-1.31-8.33-1.62-12.5-.89-3.7.65-7.18,2.13-10.42,4.01s-6.33,3.98-9.1,6.49-5.19,5.32-7.31,8.37c-3.58,5.15-6.45,11-8.29,16.99-1.17,3.82-1.9,7.76-2.45,11.72s-1,7.91-1.35,11.88c-.72,8.1-.81,16.26-.3,24.37.15,2.44.36,4.87.61,7.3.07.63,1.07.64,1,0Z"/>
  <path class="cls-2" d="M957.76,64.53c-.01,8.84-1.45,17.79-4.86,25.98-2.62,6.28-6.59,12.58-12.48,16.25-2.42,1.51-5.17,2.51-8.03,2.69s-5.67-.43-8.22-1.67c-6.05-2.95-10.28-8.77-13.15-14.68-3.78-7.79-5.57-16.53-5.95-25.15-.4-8.98.71-18.13,3.72-26.62,2.36-6.66,6.04-13.35,11.72-17.75,4.62-3.57,10.51-5.03,16.13-3.1,6.17,2.12,10.71,7.5,13.81,13.03,4.11,7.33,6.24,15.74,7,24.07.21,2.31.31,4.64.31,6.96,0,.64,1,.64,1,0-.01-9.06-1.51-18.24-5.05-26.61-2.72-6.44-6.83-12.82-12.9-16.55-2.55-1.56-5.43-2.57-8.42-2.76s-5.84.45-8.49,1.7c-6.23,2.93-10.66,8.89-13.63,14.92-3.91,7.95-5.78,16.86-6.19,25.67s.71,18.71,3.87,27.44c2.47,6.81,6.26,13.58,12.11,18.05,4.8,3.67,10.96,5.15,16.78,3.18,6.35-2.16,11.07-7.55,14.31-13.22,4.28-7.49,6.48-16.11,7.28-24.65.22-2.38.33-4.77.33-7.17,0-.64-1-.64-1,0Z"/>
  <path class="cls-2" d="M1051.88,64.53c0,7.6-.91,15.23-3.05,22.54-1.68,5.75-4.13,11.53-8.04,16.14-1.7,2.01-3.7,3.78-6.06,4.96l.73.3c-1.08-7.69-7.42-13.91-15.22-14.47-2.7-.19-5.38.31-7.85,1.41l.68.18c-4.84-10.07-6.47-21.64-6.27-32.72.19-10.28,1.98-20.98,6.67-30.22,2.97-5.86,7.99-12.64,15.18-13.05s12.43,5.7,15.62,11.34c4.97,8.79,7,19.2,7.49,29.19.07,1.47.1,2.93.11,4.4,0,.64,1,.64,1,0-.01-10.7-1.71-21.79-6.38-31.5-3.02-6.3-8.1-13.38-15.59-14.35s-12.97,4.63-16.5,10.28c-5.4,8.64-7.67,19.18-8.38,29.23-.82,11.61.4,23.79,4.76,34.64.44,1.1.92,2.19,1.44,3.26.13.26.45.28.68.18,3.79-1.68,8.18-1.74,12.01-.17,3.23,1.33,5.95,3.79,7.66,6.83,1.01,1.79,1.64,3.76,1.93,5.8.05.34.48.43.73.3,4.64-2.33,7.96-6.75,10.37-11.23,3.27-6.1,5.17-12.9,6.24-19.71.7-4.49,1.04-9.02,1.04-13.56,0-.64-1-.64-1,0Z"/>
  <path class="cls-2" d="M1008.68,109.6c-.05,7.76-5.29,14.86-12.91,16.72-6.53,1.59-13.5-1.1-17.39-6.54s-4.32-12.77-1.1-18.6c3.19-5.78,9.55-9.27,16.15-8.68,7.52.67,13.64,6.63,14.98,13.98.19,1.03.27,2.08.28,3.12,0,.64,1,.64,1,0-.05-8.03-5.37-15.44-13.2-17.57-6.94-1.88-14.36.8-18.67,6.49s-4.84,13.55-1.51,19.79,10.07,10,17.07,9.4c8.03-.69,14.67-6.99,16.04-14.9.18-1.06.27-2.14.28-3.22,0-.64-1-.64-1,0Z"/>
  <path class="cls-2" d="M1034.63,110.87c-.03,5.04-2.38,9.93-6.47,12.93s-9.91,3.85-14.81,1.86c-2.89-1.17-5.36-3.25-7.09-5.83v.5c4.19-5.9,4.52-13.85.88-20.1l-.08.61c3.55-4.4,9.25-6.67,14.86-5.61,4.47.85,8.37,3.7,10.62,7.65,1.39,2.44,2.09,5.19,2.1,8,0,.64,1,.64,1,0-.03-5.11-2.29-10.07-6.3-13.28s-9.68-4.47-14.77-2.98c-3.24.94-6.1,2.9-8.21,5.52-.14.18-.2.4-.08.61,3.47,5.96,3.11,13.47-.88,19.09-.1.14-.09.37,0,.5,3.32,4.96,9.1,7.91,15.09,7.39,5.26-.46,10.02-3.51,12.73-8.03,1.59-2.66,2.41-5.72,2.42-8.82,0-.64-1-.64-1,0Z"/>
  <path class="cls-2" d="M950.12,62.8c0,4.63-.41,9.29-1.51,13.8-.73,3.02-1.74,6.44-3.9,8.78-.64.69-1.45,1.33-2.41,1.45s-1.79-.29-2.47-.88c-2.26-1.93-3.34-5.19-4.12-7.96-1.22-4.33-1.73-8.85-1.85-13.33-.13-4.74.18-9.53,1.15-14.18.68-3.29,1.64-6.82,3.66-9.57,1.15-1.57,2.96-2.83,4.86-1.69,1,.6,1.73,1.58,2.33,2.56.86,1.4,1.47,2.94,1.98,4.5,1.34,4.13,1.95,8.5,2.18,12.83.07,1.23.09,2.46.1,3.69,0,.64,1,.64,1,0,0-4.89-.45-9.85-1.68-14.6-.8-3.1-1.93-6.64-4.28-8.95-1.64-1.62-3.86-1.99-5.75-.54-2.44,1.87-3.65,5.21-4.5,8.04-1.36,4.54-1.92,9.34-2.05,14.07-.14,4.99.21,10.05,1.26,14.94.74,3.4,1.79,7.09,4.01,9.86,1.4,1.75,3.55,2.89,5.71,1.73,2.53-1.36,3.86-4.58,4.75-7.14,1.51-4.32,2.16-8.95,2.41-13.5.07-1.3.11-2.61.11-3.91,0-.64-1-.64-1,0Z"/>
  <path class="cls-2" d="M1035.63,62.8c0,4.63-.41,9.29-1.51,13.8-.73,3.02-1.74,6.44-3.9,8.78-.64.69-1.45,1.33-2.41,1.45s-1.79-.29-2.47-.88c-2.26-1.93-3.34-5.19-4.12-7.96-1.22-4.33-1.73-8.85-1.85-13.33-.13-4.74.18-9.53,1.15-14.18.68-3.29,1.64-6.82,3.66-9.57,1.15-1.57,2.96-2.83,4.86-1.69,1,.6,1.73,1.58,2.33,2.56.86,1.4,1.47,2.94,1.98,4.5,1.34,4.13,1.95,8.5,2.18,12.83.07,1.23.09,2.46.1,3.69,0,.64,1,.64,1,0,0-4.89-.45-9.85-1.68-14.6-.8-3.1-1.93-6.64-4.28-8.95-1.64-1.62-3.86-1.99-5.75-.54-2.44,1.87-3.65,5.21-4.5,8.04-1.36,4.54-1.92,9.34-2.05,14.07-.14,4.99.21,10.05,1.26,14.94.74,3.4,1.79,7.09,4.01,9.86,1.4,1.75,3.55,2.89,5.71,1.73,2.53-1.36,3.86-4.58,4.75-7.14,1.51-4.32,2.16-8.95,2.41-13.5.07-1.3.11-2.61.11-3.91,0-.64-1-.64-1,0Z"/>
  <path class="cls-2" d="M869.4,149.19c-3.8,4.02-6.57,9.29-8.04,14.58-2.55,9.16-.76,19.09,4.79,26.8,2.64,3.66,6.01,6.77,9.86,9.1,1.97,1.19,4.06,2.18,6.22,2.96,1.14.41,2.3.76,3.48,1.04.2.05.42.14.62.08.29-.08.54-.45.75-.65.57-.56,1.15-1.12,1.73-1.68,6.25-5.95,13.21-11.72,21.24-15.1,1.2-.5,2.42-.94,3.66-1.3s2.59-.65,3.85-1.1c1.79-.64,3.58-1.53,4.91-2.93,1.7-1.8,2.17-4.2,1.67-6.59-.26-1.23-.74-2.4-1.31-3.51-.29-.57-1.15-.07-.86.5,1.05,2.08,1.86,4.57,1.05,6.87-.57,1.62-1.9,2.8-3.36,3.63-2.18,1.24-4.61,1.66-6.97,2.41-5.52,1.76-10.55,4.88-15.15,8.35-4.15,3.13-8.01,6.62-11.7,10.28l.49-.13c-9.84-2.3-18.37-9.01-22.53-18.28-2.18-4.87-3.04-10.29-2.45-15.59.5-4.47,2.02-8.8,4.22-12.71,1.27-2.25,2.74-4.44,4.52-6.32.44-.47-.26-1.18-.71-.71h0Z"/>
  <path class="cls-2" d="M923.34,178.13c1.81,2.68,3.6,5.4,4.91,8.37s1.97,6.22,1.65,9.55c-.16,1.67-.41,3.35-.19,5.02.2,1.52.85,2.87,1.82,4.05,1.87,2.28,4.66,3.94,7.34,5.09,3.25,1.39,6.78,2.05,10.31,1.91.64-.03.64-1.03,0-1-3.09.13-6.16-.37-9.05-1.47s-5.65-2.69-7.65-4.94c-1.03-1.16-1.69-2.54-1.83-4.09-.16-1.68.14-3.37.28-5.04.25-3.07-.35-6.06-1.53-8.89-1.34-3.24-3.27-6.18-5.22-9.08-.36-.53-1.22-.03-.86.5h0Z"/>
  <path class="cls-2" d="M986.76,234.49c3.28-3.21,6.58-6.77,8.57-10.97.6-1.26,1.11-2.56,1.67-3.84.63-1.44,1.33-2.87,1.89-4.34.39-1.03.65-2.35,1.67-2.94s2.23-.8,3.31-1.25c4.74-2,9.33-5.12,12.27-9.41,2.97-4.34,3.62-9.53,2.65-14.62-.91-4.74-3.41-9.1-6.88-12.44-.46-.45-1.17.26-.71.71,6.54,6.3,9.55,17,4.54,25.11-2.69,4.37-7.12,7.38-11.71,9.48-1.11.51-2.29.78-3.41,1.27s-1.66,1.15-2.11,2.22c-.52,1.23-.97,2.47-1.51,3.69-.69,1.57-1.38,3.15-2.05,4.73-1.97,4.62-5.36,8.42-8.92,11.9-.46.45.25,1.16.71.71h0Z"/>
  <path class="cls-2" d="M940.84,210.84c-1,4.22.22,8.71,3.23,11.84.45.46,1.15-.24.71-.71-2.76-2.86-3.89-6.99-2.97-10.87.15-.63-.82-.89-.96-.27h0Z"/>
  <path class="cls-2" d="M1042.76,164.17c1.47,2.75,2.64,5.68,3.42,8.7,1.19,4.6,1.51,9.7-.56,14.1-1.17,2.49-2.76,4.82-4.47,6.96s-3.58,4.08-5.65,5.82c-3.66,3.07-8.12,4.76-12.79,5.51-3.59.58-7.28.63-10.89.26-.64-.07-.64.94,0,1,7.94.81,16.86-.24,23.35-5.23,4.33-3.33,8.02-7.73,10.65-12.51,1.2-2.18,1.95-4.49,2.2-6.97s.03-4.94-.45-7.36c-.75-3.76-2.14-7.42-3.95-10.79-.3-.57-1.17-.06-.86.5h0Z"/>
  <path class="cls-2" d="M1008.53,153.81c3.28,1.12,6.8,1.38,10.21.78s6.75-2.37,9.87-4.13c.56-.32.06-1.18-.5-.86-2.99,1.69-6,3.34-9.41,3.99s-6.72.34-9.9-.74c-.61-.21-.87.76-.27.96h0Z"/>
  <path class="cls-2" d="M929.98,192.13c-2.23,3.19-4.33,6.47-6.29,9.84-1.78,3.07-3.5,6.41-3.01,10.09.21,1.59.85,3.15,2.01,4.29,1.35,1.33,3.2,1.74,4.97,2.17,2.65.65,5.19,1.77,7.67,2.87,1.79.79,3.55,1.64,5.33,2.48.32.15.55.09.89-.04.73-.28,1.46-.56,2.18-.84,1.88-.74,3.75-1.5,5.61-2.29,2.62-1.11,5.18-2.33,7.76-3.53,1.42-.66,2.85-1.2,4.39-1.49,3.73-.7,7.73-.5,11.26.95,3.02,1.24,6.36,3.91,6.36,7.49,0,.82-.24,1.57-.68,2.26-.16.25-.02.68.3.73,3.01.51,5.71,2.62,6.78,5.51s.39,6.51-1.75,8.87c-.15.17-.19.41-.08.61,1.26,2.24,1.27,5.03.23,7.37-.51,1.15-1.28,2.2-2.26,2.99-1.18.96-2.72,1.38-3.77,2.53-.94,1.03-1.53,2.31-2.68,3.16-1.02.76-2.24,1.19-3.49,1.37-2.71.4-5.53-.2-8.1-1.03-6.23-2.01-12.24-4.99-17.8-8.41-2.87-1.77-5.65-3.7-8.31-5.79-.63-.49-1.25-1-1.87-1.51-.2-.17-.38-.33-.62-.43-.3-.12-.63-.18-.94-.27-3.78-1.11-7.54-2.31-11.24-3.65-2.34-.84-4.66-1.72-6.93-2.73-1.72-.76-3.46-1.57-5.01-2.66-3.53-2.48-6.41-6.01-8.43-9.8-2.69-5.04-3.83-10.9-2.93-16.57,1.21-7.58,5.7-14.61,11.4-19.66.18-.16.35-.31.53-.46.5-.41-.21-1.11-.71-.71-1.85,1.52-3.49,3.32-4.98,5.18-2.9,3.63-5.24,7.76-6.51,12.24-1.57,5.55-1.3,11.47.71,16.87,1.75,4.68,4.7,8.95,8.47,12.23,3.16,2.74,7.06,4.33,10.93,5.83,4.26,1.65,8.61,3.08,12.99,4.4.6.18,1.19.36,1.79.53.15.04.31.08.46.13.06.02.22.11.14.07.66.38,1.26,1.04,1.86,1.51.66.52,1.33,1.04,2,1.54,1.4,1.05,2.83,2.05,4.28,3.01,5.71,3.77,11.86,6.89,18.27,9.28,4.67,1.74,11.48,3.65,15.49-.52.5-.52.89-1.12,1.31-1.71.55-.78,1.16-1.35,1.99-1.82,1.21-.69,2.38-1.31,3.32-2.38,1.7-1.93,2.57-4.6,2.33-7.17-.12-1.23-.47-2.41-1.08-3.49l-.08.61c2.37-2.61,3.24-6.5,2.01-9.84s-4.11-5.64-7.48-6.21l.3.73c1.9-2.97.12-6.64-2.22-8.78-2.82-2.57-6.91-3.66-10.65-3.8-2.59-.09-5.31.19-7.75,1.1-1.97.73-3.84,1.74-5.75,2.61-3.95,1.81-7.97,3.45-12.03,4.98l.39.05c-3.75-1.86-7.59-3.66-11.56-4.99-1.4-.47-2.87-.7-4.25-1.2-1.71-.62-2.92-1.88-3.49-3.6-1.14-3.5.43-7.07,2.16-10.07,2.08-3.62,4.32-7.15,6.71-10.57.37-.53-.5-1.03-.86-.5h0Z"/>
  <path class="cls-2" d="M962.26,246.97c6.22.57,11.92,3.66,15.9,8.44.41.5,1.12-.22.71-.71-4.15-5-10.14-8.14-16.61-8.73-.64-.06-.64.94,0,1h0Z"/>
  <path class="cls-2" d="M966.15,233.8c6.55.84,12.73,3.76,17.56,8.26.47.44,1.18-.27.71-.71-5.04-4.69-11.44-7.67-18.27-8.55-.64-.08-.63.92,0,1h0Z"/>
  <path class="cls-2" d="M964.12,222.83c5.15-.12,10.22,1.37,14.49,4.25.54.36,1.04-.51.5-.86-4.41-2.97-9.68-4.51-14.99-4.38-.64.01-.64,1.01,0,1h0Z"/>
  <path class="cls-2" d="M1007.5,209.77c5.23,3.02,9.18,8.05,10.98,13.81.45,1.45.78,2.95.94,4.46.08.73.15,1.49.09,2.22-.08,1.02-.56,1.78-1.38,2.37-1.44,1.04-3.08,1.85-4.61,2.75-1.72,1.01-3.43,2.02-5.15,3.03-2.65,1.56-5.44,3.12-7.24,5.7-1.49,2.14-1.68,5.03.3,6.95,1.74,1.67,4.42,1.91,6.71,1.86,1.36-.03,2.71-.23,4.06-.33s3.26-.07,4.05,1.31c.29.51.44,1.18.23,1.74-.28.75-1.09.9-1.81.82-.81-.09-1.61-.39-2.39-.61-1.02-.29-2.05-.58-3.07-.88-2.68-.76-6.96-2.33-8.68.95-1.59,3.03,2.65,4.93,4.65,6.14,3.01,1.83,6.12,3.54,9.43,4.76,5.79,2.14,12.55,2.64,18.15-.37s7.89-8.77,8.99-14.57c.63-3.34,1.05-6.81,1.11-10.21.06-3.75-.81-7.27-2.13-10.76s-2.87-7.12-4.32-10.68-3-7.37-4.5-11.05c-.72-1.77-1.44-3.53-2.16-5.3-.24-.59-1.21-.33-.96.27,2.91,7.14,5.81,14.28,8.72,21.42,1.4,3.45,2.98,6.9,3.81,10.54s.55,7.35.13,11.02c-.66,5.81-1.85,12.27-6.34,16.43s-11.48,4.74-17.27,3.23c-3.4-.89-6.59-2.4-9.64-4.12-1.49-.84-2.95-1.73-4.4-2.64-1.1-.69-2.99-1.67-2.53-3.26.52-1.81,2.69-2.03,4.23-1.75,1.8.33,3.58.96,5.34,1.46.85.24,1.7.5,2.55.73.7.19,1.45.35,2.18.24,1.2-.19,2.01-1.15,2.01-2.37s-.67-2.32-1.7-2.9c-1.36-.76-2.98-.67-4.48-.5-2.42.28-5.04.55-7.39-.24-2.54-.85-3.8-3.45-2.55-5.91,1.38-2.73,4.24-4.37,6.78-5.86,3.31-1.95,6.67-3.82,9.93-5.85,1.27-.8,2.16-1.8,2.33-3.34.16-1.45-.09-3-.36-4.43-1.07-5.68-4.2-10.99-8.64-14.7-1.09-.91-2.26-1.73-3.49-2.44-.56-.32-1.06.54-.5.86h0Z"/>
  <path class="cls-2" d="M1018.64,222.8c-5.02,3.43-8.13,8.92-8.66,14.96-.06.64.94.64,1,0,.49-5.66,3.46-10.88,8.16-14.1.53-.36.03-1.23-.5-.86h0Z"/>
  <path class="cls-2" d="M962.76,269.76c7.85,3.56,15.29,8.05,21.98,13.48,3.13,2.54,6.19,5.26,8.76,8.38,1.3,1.58,2.5,3.33,3.22,5.26,1.31,3.54,1.46,7.5.83,11.2-.4,2.33-1.04,4.7-2.14,6.81-1.38,2.66-3.22,5.08-4.98,7.49-1.43,1.96-2.88,3.9-4.32,5.84-1.1,1.48-2.28,3.05-2.64,4.91-.7,3.6,1.39,6.93,3.83,9.37,1.3,1.31,2.75,2.46,4.37,3.35,1.51.83,3.14,1.43,4.78,1.96,8.5,2.72,17.63,3.21,26.49,3.58,4.21.17,8.43.4,12.64.29,2.88-.07,5.75-.39,8.51-1.23s5.84-2.01,8.21-3.86c1.25-.98,2.37-2.26,2.74-3.84.44-1.91-.37-3.72-1.39-5.31-3.61-5.62-9.81-8.82-16.03-10.69-3.49-1.05-7.2-1.38-10.83-1.55-3-.14-6.02-.13-9.02,0-.47.02-.93.04-1.4.07l.43.75c4.25-6.1,7.74-12.74,10.2-19.77,1.89-5.39,3.69-11.53,1.86-17.18-.98-3.03-2.79-5.54-4.94-7.84s-4.4-4.61-6.65-6.88c-4.68-4.71-9.46-9.33-14.27-13.9-3.02-2.87-6.05-5.72-9.1-8.54-.13-.12-.25-.23-.38-.35-.47-.44-1.18.27-.71.71,2.58,2.39,5.15,4.79,7.7,7.21,4.63,4.38,9.23,8.8,13.76,13.3,2.31,2.29,4.6,4.61,6.86,6.96,1.96,2.04,4,4.05,5.41,6.53s2.08,4.98,2.09,7.69c0,3.39-.88,6.75-1.9,9.95-2.11,6.63-5.15,12.93-8.9,18.78-.61.95-1.24,1.89-1.89,2.82-.21.3.07.78.43.75,5.24-.35,10.62-.3,15.83.38,6.07.79,12.39,3.11,17.02,7.18,1.54,1.36,2.91,2.93,3.95,4.71.92,1.59,1.41,3.35.48,5.05-1.49,2.74-4.93,4.12-7.69,5.15-2.54.95-5.12,1.57-7.82,1.79-3.74.31-7.52.13-11.27,0-8.83-.32-17.78-.61-26.41-2.66-3.69-.88-7.5-2.01-10.54-4.37-2.57-2-5.26-4.93-5.56-8.31-.17-1.88.54-3.47,1.57-5,1.34-1.98,2.84-3.87,4.26-5.79,1.92-2.6,3.9-5.2,5.53-7.99,1.03-1.77,1.75-3.66,2.27-5.64,1.08-4.11,1.27-8.5.18-12.62-1.31-4.94-5.05-8.82-8.72-12.19-5.91-5.42-12.59-10.05-19.64-13.85-2.14-1.15-4.32-2.23-6.54-3.23-.58-.26-1.09.6-.5.86h0Z"/>
  <path class="cls-2" d="M1019.38,333.6c3.99-.28,8.15.17,11.94,1.48,2.32.8,4.39,2.02,6.37,3.44,1.66,1.19,3.21,2.59,4.06,4.49,1.03,2.3.93,4.91.14,7.26-.21.61.76.87.96.27.72-2.13.89-4.47.27-6.65s-2.02-3.95-3.78-5.35c-1.93-1.54-4.03-2.9-6.31-3.86-1.96-.82-4.01-1.36-6.11-1.69-2.5-.4-5.02-.56-7.55-.38-.64.05-.64,1.05,0,1h0Z"/>
  <path class="cls-2" d="M1028.9,329.08c4.25-.18,8.54.57,12.39,2.4,3.48,1.65,6.81,3.85,8.73,7.29,1.21,2.18,1.8,4.64,1.84,7.12,0,.64,1.01.64,1,0-.06-4.56-1.98-8.92-5.51-11.85-3.33-2.77-7.62-4.68-11.86-5.49-2.17-.41-4.38-.57-6.59-.48-.64.03-.64,1.03,0,1h0Z"/>
  <path class="cls-2" d="M902.85,225.55c-1.05,5.61-1.83,11.31-2.05,17.01-.1,2.48-.08,4.98.07,7.46.16,2.67.59,5.31.75,7.97.17,2.8.05,5.61-.14,8.41-.21,2.95-.6,5.87-1.26,8.76-1.61,7.06-4.79,13.59-9.31,19.24s-9.84,11.03-15.81,15.4c-.51.38-.02,1.24.5.86,5.4-3.95,10.15-8.57,14.46-13.68,2.11-2.5,4.1-5.1,5.76-7.93,1.9-3.25,3.41-6.74,4.49-10.35,1.72-5.7,2.35-11.72,2.38-17.66.02-2.77-.3-5.49-.59-8.24-.24-2.29-.34-4.58-.36-6.88-.04-6.75.83-13.49,2.06-20.11.12-.63-.85-.9-.96-.27h0Z"/>
  <path class="cls-2" d="M894.45,318.56c-.08,2.69-.11,5.38-.08,8.07.02,1.77.05,3.55.23,5.31.24,2.3,1.1,4.46,1.57,6.71.24,1.16.38,2.38.02,3.54-.38,1.23-1.26,2.16-2.36,2.79-1.7.99-3.68,1.67-5.6,2.1-2.73.61-5.55.63-8.31.25-.5-.07-1.03.15-1.52.25-.68.14-1.36.24-2.05.3-1.08.1-2.16.11-3.24.03-4.12-.27-8.07-1.92-11.17-4.64-2.71-2.37-5.04-5.74-5.39-9.41-.14-1.52.04-3.05.33-4.54.55-2.84,1.47-5.6,2.44-8.32,1.55-4.34,3.33-8.7,5.85-12.58.65-1,1.36-1.99,2.21-2.83,1.63-1.61,3.71-2.85,5.79-3.78,3.89-1.75,8.23-2.41,12.47-2.29.58.02,1.17.05,1.75.1.64.05.64-.95,0-1-3.8-.3-7.7,0-11.37,1.08-3.91,1.15-7.94,3.22-10.49,6.48s-4.19,6.98-5.71,10.69c-1.21,2.99-2.32,6.04-3.19,9.15-.57,2.04-1.04,4.14-1.12,6.26-.31,7.98,7.24,14.6,14.51,16.2,2.07.45,4.22.59,6.32.4.63-.06,1.26-.14,1.89-.26s1.24-.36,1.85-.27c1.54.2,3.09.28,4.64.2,2.19-.11,4.38-.53,6.44-1.29s4.54-1.74,5.63-3.9c1.23-2.43.34-5.2-.34-7.65-.3-1.08-.64-2.17-.79-3.28-.11-.8-.15-1.61-.19-2.41-.18-3.58-.12-7.17-.04-10.74,0-.24.01-.48.02-.72.02-.64-.98-.64-1,0h0Z"/>
  <path class="cls-2" d="M890.22,320.84c4.29-1.56,8.54-3.24,12.74-5.02s8.57-3.56,12.35-6.24c2.03-1.44,3.92-3.09,5.65-4.89,1.81-1.89,3.09-4.22,4.48-6.43,2.4-3.85,4.73-7.75,6.96-11.7,2.94-5.21,5.61-10.57,7.98-16.07l-.56.23c8.26,1.24,16.73.84,24.82-1.29,7.18-1.89,14.17-5.03,20.15-9.46,6.48-4.81,11.53-11.24,14.92-18.54,2.78-5.98,4.49-12.41,5.35-18.94.52-3.93.76-7.91.61-11.87,0-.2-.02-.41-.03-.61-.03-.64-1.03-.64-1,0,.17,3.38.03,6.78-.31,10.14-.62,6.18-2.02,12.31-4.33,18.08-2.83,7.08-7.16,13.56-12.91,18.61s-13.42,8.93-21.07,11.17c-7.69,2.26-15.8,2.94-23.76,2.04-.73-.08-1.45-.18-2.18-.29-.2-.03-.47.01-.56.23-3.86,8.95-8.6,17.45-13.69,25.75-.68,1.11-1.37,2.21-2.06,3.31-.79,1.25-1.52,2.61-2.44,3.77-1.48,1.86-3.41,3.51-5.27,4.97-3.48,2.72-7.49,4.55-11.53,6.28-4.8,2.06-9.65,4.01-14.56,5.79-.6.22-.34,1.18.27.96h0Z"/>
  <path class="cls-2" d="M880.11,348.05c2.15-5.07,2.55-10.72,1.08-16.04-.17-.62-1.14-.36-.96.27,1.39,5.03,1.06,10.45-.98,15.26-.25.59.61,1.1.86.5h0Z"/>
  <path class="cls-4" d="M67.39,168.09c.1,1.14.07,2.93-.81,4.71-1.53,3.09-4.71,4.34-5.82,4.79-6.85,2.77-17.43,8.34-21.35,10.83-8.45,5.37-12.61,13.31-17.78,23.2-2.13,4.07-4.24,8.1-5.62,13.98-1.55,6.58-.38,7.83-2.16,12.87-2.02,5.74-3.91,5.19-8.46,13.68-3.23,6.03-5.08,9.48-4.89,14.22.09,2.27.58,3.24.93,8.46.32,4.81-.02,5.07.47,6.97,1.34,5.18,5.19,8.2,5.83,8.69,3.38,2.58,6.84,3.07,8.68,3.31.63.08,3.11-.11,8.02-.48,5.05-.39,7-.58,8.06-2.09.61-.87.7-1.86.69-2.52,1.35-.35,3.35-1.01,5.53-2.3,0,0,1.64-.97,2.85-2.02,3.26-2.82,5.55-11.17,2.88-18.92-1.78-5.15-3.97-4.88-9.54-14.58-2.18-3.79-3.29-5.68-3.96-7.74-3.44-10.53,1.77-21.17,5.1-27.96,2.18-4.45,6.08-11.11,12.89-17.9-.52,6.92-1.74,12.64-2.89,16.9-1.63,6.01-2.88,10.63-5.99,16.18-2.03,3.62-3.47,5.15-4.35,8.82-1.05,4.34-.48,8.19.08,10.44,1.33,5.37,4.13,7.88,7.31,12.17,3.13,4.23,11.46,15.47,9.83,26.54-1,6.74-5.39,11.31-6.48,12.42-6.65,6.74-17.74,9.34-23.63,14.95-1.03.98-2.29,2.42-3.01,4.49-.33.96-.78,2.71-.42,5.44,2.12,16.24,11.58,23.36,11.58,23.36,6.94,5.22,14.32,5.61,17.64,5.79,4.98.27,8.41-.63,15.19-2.4,7.47-1.95,11.24-2.98,12.89-6.27,1.45-2.9,1.02-6.81-.72-9.54-2.66-4.16-6.74-3.06-14.22-7.38-5.19-2.99-10.79-7.89-9.9-10.08.8-1.97,5.93.51,11.62-2.67,3.07-1.71,4.75-4.2,7.64-8.49,1.39-2.07,3.25-4.87,4.68-9,1.71-4.97,1.83-9.06,1.88-11.44.06-3.05-.17-7.62-1.77-12.96,1.92-.23,4.39-.55,7.26-.97,3.28-.48,8.37-1.29,14.58-2.52,3.82-.76,8.14-1.7,12.89-2.86,3.28,4.25,8.43,12.22,9.97,23.2,1.01,7.24.08,13.08-.42,16.01-.67,3.98-1.58,9.4-4.8,14.77-1.6,2.66-2.39,3.99-3.24,5.04-2.55,3.16-4.88,4.63-4.68,6.95.07.82.42,1.39.72,1.87,2.16,3.44,7.12,4.15,8.36,4.34,8.07,1.23,15.66,4.59,23.56,6.64,13.3,3.44,16.94,5.56,23.88,5.05,1.27-.09,6.32-.55,11.52-3.6,1.8-1.05,3.02-1.79,3.94-3.25,2.49-3.93.62-9.64-1.3-12.81-2.22-3.67-5.61-5.87-16.79-9.88-5.65-2.03-13.29-4.51-22.57-6.81,1.11-2.29,8.21-17.3,8.12-29.7-.03-3.67-.52-7.46-.52-7.46-.32-2.46-1.09-7.2-3.1-12.89-2.16-6.12-4.74-10.43-6.48-13.32-1.11-1.83-2.11-3.34-2.87-4.43,2.51-5.08,4.05-9.65,5.03-13.21,1.54-5.6,2.31-8.4,2.24-12.24-.05-3.09-.58-5.26,0-9.11.39-2.6,1.09-4.68,1.62-6.01.43,1.4,1.1,3.47,2.01,5.94,1.8,4.85,2.96,6.91,5.29,12.06,5.56,12.3,5.43,14.9,5.22,16.38-.46,3.24-1.53,2.71-2.54,7.14-.4,1.74-1.71,7.78.44,14.57,1.68,5.31,3.85,5.97,3.56,9.47-.34,4.02-3.32,4.35-3.77,7.97-.7,5.63,5.71,11.51,11.14,13.96,1.65.74,5.11,2.26,9.54,1.62,5.45-.78,8.8-4.3,10.62-6.22,6.28-6.6,6.82-14.82,6.87-17.33.04-1.69.09-7.34-3.1-13-1.4-2.48-2.45-3.24-6.12-7.38-.92-1.04-6.24-7.04-9.01-11.08-3.25-4.74-4.55-9.97-7.03-20.23-1.24-5.13-2.69-12.03-3.79-20.35-28.99-4.79-49.68-7.66-62.84-8.4-4.24-.24-11.46-.46-17.61-5.28-4.64-3.63-8.74-9.93-10.6-12.78-1.64-2.51-2.86-4.71-3.7-6.3Z"/>
  <path class="cls-5" d="M13.19,145.47c-2.91,1.72-4.39,4.06-5.46,5.78-2.9,4.69-3.49,9.21-3.6,10.08-.97,8.05,2.45,14.28,4.05,17.19,2.67,4.86,5.85,7.83,8.1,9.9,4.91,4.51,9.81,7.1,13.14,8.55,3.53-3.75,6.8-6.35,9.12-8.02,1.25-.9,11.71-8.45,19.05-9.89,2.97-.58,4.08-1.2,6.3-2.43,1.18-.65,1.79-1.19,2.25-1.71,1.03-1.17.95-1.88,1.44-1.98,1.53-.31,4.1,6.37,4.6,7.66.91,2.37,1.37,3.56,1.68,5.31.84,4.7-.55,6.72-.16,9.27.39,2.56,2.63,5.96,11.24,9.26.08,1.6.31,3.79.99,6.29,1.82,6.71,5.53,10.98,6.89,12.5,1.92,2.15,8.64,9.7,19.62,10.56,10.67.84,20.63-4.89,24.89-11.7,2.47-3.95,4.67-10.89,4.81-11.35.82-2.62,1.34-4.86,1.65-6.44,2.1-.21,5.08-.77,8.29-2.36,1.59-.79,2.91-1.67,3.97-2.49,1.32.55,3.3,1.22,5.77,1.45,6.35.59,11.22-2.14,13.74-3.6,4.62-2.67,7.26-5.94,8.9-8,3.17-3.99,7.15-9.01,7.21-16.16.05-5.75-2.46-11.03-4.29-13.36-.23-.3-1.39-1.74-3.08-3.92-1.56-2.01-2.41-3.16-2.56-3.34-3.52-4.43-30.57,4.11-44.95,5.12-11.25.8-22.53-.36-33.75-1.51-20.1-2.07-40.2-4.13-60.29-6.2-10.43-1.07-11.48-1.45-13.19-2.12-4.84-1.88-9.01-4.95-13.64-3.57-1.28.38-2.43,1.05-2.73,1.24Z"/>
  <path class="cls-4" d="M28.85,89.88c-1.55-14.27-.9-25.98,0-34.08,1.25-11.18,2.17-18.76,6.72-27.84,2.28-4.56,7.25-14.18,18.07-20.94,3.98-2.49,10.24-6.4,18.65-6.12,9.71.33,16.47,6.06,19.8,8.89,20.64,17.51,17.09,54.74,16.63,58.97,6.34.16,12.67.32,19.01.48-1.45-13.5,0-24.26,1.44-31.2,1.57-7.53,2.94-13.8,7.68-20.66,2.31-3.34,7.45-10.57,17.28-14.38,1.94-.75,8.38-3.05,16.8-2.1,2.21.25,13.45,1.73,22.08,10.74,7.92,8.27,9.26,18.3,11.04,31.68,1.08,8.14.9,14.42.74,19.29-.43,12.76-2.43,23.63-4.58,32.07,5.31,3.35,16.94,11.81,18.24,24.48,2.13,20.78-25.24,36.16-32.64,40.32-13.1,7.37-24.74,9.13-36.96,10.99-19.58,2.98-34.49,1.47-53.28-.43-15.93-1.61-28.75-2.91-45.12-8.16-20.93-6.71-34.71-10.92-41.76-24-1.42-2.64-7.94-15.6-1.86-29.48,6.07-13.85,20-17.96,22.02-18.52Z"/>
  <ellipse class="cls-3" cx="75.01" cy="62.63" rx="26.88" ry="44.43"/>
  <path class="cls-3" d="M196.01,62.64c0,20.79-7.41,38.24-17.4,43.09-1.08-7.82-7.78-13.83-15.88-13.83-2.29,0-4.48.48-6.45,1.35-3.94-7.97-6.35-18.75-6.35-30.61,0-24.54,10.32-44.44,23.04-44.44s23.04,19.9,23.04,44.44Z"/>
  <path class="cls-1" d="M152.75,105.94c0,3.83-1.25,7.37-3.36,10.24-3.15,4.27-8.21,7.04-13.92,7.04-9.54,0-17.28-7.74-17.28-17.28s7.74-17.28,17.28-17.28c6.28,0,11.78,3.35,14.8,8.36,1.57,2.6,2.48,5.66,2.48,8.92Z"/>
  <path class="cls-1" d="M178.7,107.18c0,8.86-7.18,16.04-16.03,16.04-5.52,0-10.4-2.79-13.28-7.04,2.11-2.87,3.36-6.41,3.36-10.24,0-3.26-.91-6.32-2.48-8.92,1.58-1.94,3.61-3.51,5.95-4.53,1.97-.87,4.16-1.35,6.45-1.35,8.1,0,14.8,6.01,15.88,13.83.1.72.15,1.46.15,2.21Z"/>
  <path class="cls-2" d="M29.47,89.7c-.92-8.57-1.18-17.22-.69-25.83.19-3.41.52-6.8.91-10.18.46-4.08.95-8.16,1.79-12.18,1.34-6.42,3.81-12.48,7.14-18.12,3.67-6.22,8.59-11.68,14.66-15.65,2.7-1.77,5.52-3.44,8.54-4.62,3.84-1.51,7.95-2.19,12.07-1.81,6.73.62,12.53,4.05,17.59,8.33,4.74,4.01,8.36,9.03,10.97,14.65s4.16,11.49,5.15,17.5c.86,5.22,1.24,10.52,1.26,15.81.01,3.31-.1,6.63-.41,9.93-.03.35-.07.7-.1,1.05-.03.27.25.49.5.5,6.34.16,12.67.32,19.01.48.25,0,.53-.24.5-.5-.82-7.73-.81-15.54.13-23.25.34-2.8.82-5.58,1.4-8.34.76-3.64,1.55-7.29,2.8-10.81,1.96-5.5,5.2-10.61,9.21-14.85s9.16-7.6,14.83-9.31c5.28-1.59,11.01-1.95,16.4-.97s10.8,3.19,15.32,6.49c5.46,3.99,9.37,9.54,11.52,15.93,1.06,3.14,1.75,6.39,2.31,9.66.65,3.8,1.19,7.64,1.62,11.47.82,7.24.74,14.55.28,21.81-.49,7.7-1.58,15.35-3.25,22.88-.34,1.54-.71,3.07-1.09,4.6-.06.22.04.44.23.56,7.9,4.98,15.56,12.21,17.61,21.67,1.03,4.74.39,9.64-1.5,14.09s-4.69,8.16-7.91,11.55c-5.7,6.01-12.58,10.82-19.7,14.97-4.48,2.62-9.09,4.98-13.97,6.78-6.19,2.28-12.64,3.69-19.14,4.78-7.04,1.17-14.1,2.16-21.23,2.52s-13.74.17-20.6-.3-14.26-1.25-21.37-1.98-13.51-1.43-20.21-2.58c-7.07-1.21-14.05-2.89-20.89-5.07-6.05-1.92-12.11-3.82-18.04-6.07-8.98-3.41-17.94-7.96-23.08-16.43s-6.84-20.04-3-29.62c3.47-8.66,11-15.1,19.65-18.29.79-.29,1.59-.55,2.39-.78.62-.17.36-1.14-.27-.96-7,1.94-13.63,6.19-18.16,11.88-4.08,5.12-6.46,11.45-6.75,17.99-.24,5.4.89,10.83,2.98,15.79,1.51,3.57,3.58,6.89,6.25,9.71,3.27,3.46,7.32,6.08,11.56,8.19,5.11,2.54,10.53,4.44,15.93,6.25,6.76,2.25,13.53,4.5,20.46,6.18,13.82,3.36,28.06,4.57,42.19,5.92,7.01.67,14.05,1.24,21.09,1.34s14.63-.31,21.88-1.28c6.65-.89,13.35-1.92,19.86-3.55,7-1.75,13.74-4.36,20.04-7.9s12.82-7.69,18.45-12.62c6.99-6.11,13.54-14.11,14.45-23.69,1.03-10.83-5.94-20.03-14.1-26.29-1.42-1.09-2.89-2.11-4.4-3.06l.23.56c1.81-7.15,3.11-14.42,3.88-21.76s1.11-15.03.67-22.51c-.24-4.1-.8-8.18-1.37-12.24-.5-3.54-1.06-7.09-1.93-10.57-1.58-6.34-4.38-12.24-9.03-16.91s-10.54-7.81-16.84-9.46c-5.15-1.34-10.53-1.54-15.77-.6-5.81,1.04-11.25,3.58-15.82,7.33-4.24,3.48-7.8,8.02-10.39,12.84-1.78,3.31-3.02,6.87-3.95,10.51-.83,3.25-1.53,6.55-2.09,9.85-1.2,7.05-1.63,14.22-1.32,21.36.1,2.2.27,4.4.5,6.59l.5-.5c-6.34-.16-12.67-.32-19.01-.48l.5.5c.29-2.69.43-5.4.49-8.11.11-5.05-.12-10.12-.73-15.14-.74-6.07-2.04-12.1-4.22-17.83s-5.45-11.48-9.89-16c-1.93-1.97-4.1-3.76-6.34-5.37-2.78-2-5.84-3.65-9.11-4.69-3.99-1.27-8.24-1.57-12.36-.87-3.67.62-7.15,2.04-10.38,3.86s-6.24,3.81-9,6.22-5.23,5.17-7.37,8.15c-3.59,5-6.5,10.72-8.37,16.57-1.19,3.71-1.93,7.53-2.49,11.38s-1.02,7.82-1.38,11.74c-.74,7.98-.83,16.02-.33,24.02.15,2.4.36,4.8.62,7.19.07.63,1.07.64,1,0Z"/>
  <path class="cls-2" d="M101.39,62.63c-.01,8.65-1.45,17.44-4.87,25.43-2.65,6.17-6.62,12.28-12.46,15.84-4.96,3.03-10.95,3.52-16.24,1.01-6.01-2.85-10.26-8.51-13.15-14.33-3.77-7.59-5.57-16.13-5.96-24.56s.7-17.73,3.7-26.02c2.37-6.54,6.06-13.1,11.7-17.37,4.66-3.53,10.54-4.95,16.17-3.05,6.12,2.06,10.68,7.29,13.81,12.74,4.11,7.17,6.25,15.43,7,23.62.2,2.23.3,4.46.3,6.7,0,.64,1,.64,1,0-.01-8.87-1.52-17.84-5.04-26.01-2.73-6.33-6.87-12.57-12.9-16.19-5.18-3.11-11.38-3.58-16.9-1.05-6.21,2.85-10.68,8.68-13.67,14.65-3.89,7.76-5.76,16.48-6.17,25.11s.73,18.3,3.88,26.81c2.48,6.7,6.3,13.29,12.11,17.62,4.82,3.6,10.98,5.02,16.77,3.09,6.3-2.1,11.04-7.34,14.3-12.93,4.26-7.3,6.47-15.73,7.27-24.1.22-2.33.33-4.66.33-7,0-.64-1-.64-1,0Z"/>
  <path class="cls-2" d="M195.51,62.64c0,7.43-.92,14.89-3.05,22.02-1.68,5.64-4.15,11.29-8.03,15.78-1.71,1.97-3.72,3.7-6.07,4.86l.73.3c-1.1-7.66-7.58-13.65-15.3-14.16-2.67-.18-5.32.32-7.77,1.38l.68.18c-4.85-9.85-6.48-21.24-6.26-32.12.2-10.05,2.02-20.49,6.7-29.48,3.02-5.8,8.08-12.31,15.19-12.68s12.41,5.57,15.64,11.2c4.92,8.58,6.96,18.78,7.43,28.56.07,1.39.1,2.78.1,4.16,0,.64,1,.64,1,0-.01-10.47-1.72-21.32-6.37-30.79-3.05-6.21-8.13-13.06-15.51-14.04s-12.96,4.38-16.56,9.99c-5.37,8.36-7.67,18.62-8.4,28.42-.86,11.39.36,23.37,4.71,34,.45,1.11.94,2.2,1.47,3.28.13.26.45.28.68.18,7.2-3.12,15.79-.24,19.69,6.55,1,1.74,1.63,3.65,1.91,5.63.05.34.48.42.73.3,4.61-2.26,7.94-6.57,10.36-10.98,3.26-5.94,5.17-12.6,6.24-19.26.71-4.39,1.04-8.84,1.04-13.28,0-.64-1-.64-1,0Z"/>
  <path class="cls-2" d="M152.31,105.7c-.05,7.68-5.38,14.52-12.86,16.32-6.5,1.56-13.52-1-17.46-6.41s-4.29-12.48-1.07-18.16,9.62-9.03,16.15-8.46c7.38.65,13.57,6.33,14.95,13.59.2,1.03.28,2.07.29,3.12,0,.64,1,.64,1,0-.05-7.98-5.5-15.16-13.24-17.2-6.86-1.8-14.29.74-18.62,6.35s-4.87,13.26-1.51,19.39,10.08,9.73,16.98,9.18c7.96-.63,14.76-6.73,16.13-14.63.18-1.02.27-2.06.27-3.1,0-.64-1-.64-1,0Z"/>
  <path class="cls-2" d="M178.26,106.94c-.03,4.98-2.43,9.75-6.5,12.65-4.27,3.04-9.88,3.72-14.76,1.8-2.88-1.13-5.37-3.16-7.11-5.7v.5c4.18-5.76,4.52-13.56.88-19.66l-.08.61c3.59-4.35,9.31-6.52,14.88-5.48,4.41.82,8.3,3.56,10.57,7.43,1.4,2.39,2.11,5.09,2.13,7.85,0,.64,1,.64,1,0-.03-5.07-2.36-9.92-6.37-13.04s-9.66-4.3-14.7-2.86c-3.22.92-6.08,2.82-8.21,5.4-.14.17-.2.4-.08.61,3.47,5.83,3.1,13.18-.88,18.66-.1.13-.09.37,0,.5,3.36,4.9,9.15,7.74,15.1,7.23,5.23-.45,10.01-3.41,12.74-7.9,1.57-2.58,2.38-5.56,2.4-8.58,0-.64-1-.64-1,0Z"/>
  <path class="cls-2" d="M93.75,59.94c0,4.53-.41,9.1-1.51,13.51-.74,2.95-1.75,6.27-3.87,8.54-.64.69-1.46,1.31-2.42,1.43s-1.79-.28-2.48-.86c-2.23-1.85-3.33-5.03-4.1-7.72-1.22-4.23-1.74-8.66-1.86-13.05-.13-4.65.18-9.34,1.15-13.9.68-3.21,1.64-6.66,3.64-9.32,1.16-1.55,2.98-2.8,4.88-1.68.99.58,1.74,1.54,2.34,2.5.84,1.35,1.46,2.83,1.96,4.33,1.35,4.03,1.96,8.31,2.2,12.54.07,1.22.1,2.45.1,3.67,0,.64,1,.64,1,0,0-4.8-.46-9.66-1.68-14.31-.8-3.03-1.94-6.47-4.26-8.72-1.63-1.58-3.84-1.97-5.72-.57-2.45,1.82-3.68,5.12-4.54,7.92-1.35,4.42-1.91,9.09-2.04,13.7-.14,4.9.2,9.86,1.26,14.65.74,3.34,1.81,6.96,4.02,9.65,1.41,1.72,3.55,2.79,5.68,1.68,2.5-1.3,3.84-4.42,4.74-6.92,1.52-4.22,2.17-8.75,2.44-13.21.08-1.3.11-2.59.11-3.89,0-.64-1-.64-1,0Z"/>
  <path class="cls-2" d="M179.26,59.94c0,4.53-.41,9.1-1.51,13.51-.74,2.95-1.75,6.27-3.87,8.54-.64.69-1.46,1.31-2.42,1.43s-1.79-.28-2.48-.86c-2.23-1.85-3.33-5.03-4.1-7.72-1.22-4.23-1.74-8.66-1.86-13.05-.13-4.65.18-9.34,1.15-13.9.68-3.21,1.64-6.66,3.64-9.32,1.16-1.55,2.98-2.8,4.88-1.68.99.58,1.74,1.54,2.34,2.5.84,1.35,1.46,2.83,1.96,4.33,1.35,4.03,1.96,8.31,2.2,12.54.07,1.22.1,2.45.1,3.67,0,.64,1,.64,1,0,0-4.8-.46-9.66-1.68-14.31-.8-3.03-1.94-6.47-4.26-8.72-1.63-1.58-3.84-1.97-5.72-.57-2.45,1.82-3.68,5.12-4.54,7.92-1.35,4.42-1.91,9.09-2.04,13.7-.14,4.9.2,9.86,1.26,14.65.74,3.34,1.81,6.96,4.02,9.65,1.41,1.72,3.55,2.79,5.68,1.68,2.5-1.3,3.84-4.42,4.74-6.92,1.52-4.22,2.17-8.75,2.44-13.21.08-1.3.11-2.59.11-3.89,0-.64-1-.64-1,0Z"/>
  <path class="cls-2" d="M12.93,145.03c-6.95,4.52-9.91,13.07-9.37,21.09.61,9.09,5.83,16.93,12.58,22.77,4.07,3.51,8.65,6.38,13.43,8.83.19.1.46.09.61-.08,4.6-5.37,10.13-9.91,16.29-13.37,3.1-1.75,6.36-3.22,9.72-4.38s6.88-1.72,9.63-3.9c2.5-1.99,3.87-5.97,1.61-8.64-.42-.49-1.12.22-.71.71,2.14,2.53.09,6.16-2.25,7.68-1.45.94-3.11,1.5-4.75,2s-3.13.94-4.67,1.5c-6.28,2.29-12.17,5.61-17.39,9.78-2.98,2.38-5.72,5.03-8.2,7.93l.61-.08c-8.06-4.12-15.88-9.58-20.87-17.29-2.29-3.53-3.89-7.45-4.46-11.63-.53-3.92-.22-7.98,1.02-11.75,1.37-4.16,3.97-7.88,7.67-10.29.54-.35.04-1.22-.5-.86h0Z"/>
  <path class="cls-2" d="M66.96,172.7c1.83,2.65,3.64,5.34,4.96,8.29.66,1.48,1.18,3.03,1.47,4.62s.27,3.25.1,4.89-.39,3.3-.11,4.95c.24,1.44.95,2.71,1.9,3.8,1.92,2.2,4.67,3.78,7.34,4.88,3.22,1.33,6.71,1.95,10.19,1.81.64-.03.64-1.03,0-1-3.05.12-6.08-.35-8.95-1.4s-5.51-2.53-7.54-4.65c-1.08-1.12-1.83-2.47-2.02-4.03s.09-3.23.24-4.83c.28-3.1-.29-6.08-1.49-8.93-1.34-3.18-3.28-6.07-5.23-8.9-.36-.53-1.23-.03-.86.5h0Z"/>
  <path class="cls-2" d="M84.44,204.81c.44,4.45,1.78,8.83,3.88,12.77,2.62,4.91,6.53,9.02,11.2,12.04,5.54,3.57,12.15,5.45,18.75,4.58,5.21-.69,10.32-3.09,14.27-6.51,3.12-2.7,5.37-6.1,7.15-9.79s3.19-7.3,4.11-11.2c.18-.76.34-1.52.48-2.28l-.48.37c5.85-.28,11.61-3,15.11-7.75,3.92-5.34,4.21-12.51,2.22-18.66-1.17-3.62-3.29-6.88-6.05-9.49-.47-.44-1.17.26-.71.71,4.18,3.97,6.59,9.34,6.92,15.07.21,3.61-.45,7.26-2.29,10.4s-4.94,5.77-8.43,7.2c-2.14.88-4.46,1.42-6.77,1.53-.2,0-.44.15-.48.37-.68,3.64-1.75,7.2-3.25,10.59s-3.29,7.01-5.85,9.9c-3.95,4.45-9.55,7.46-15.41,8.47-1.1.19-2.18.28-3.46.3-1.81.03-3.61-.14-5.38-.51-2.97-.61-5.8-1.74-8.43-3.24-4.5-2.57-8.41-6.19-11.18-10.58-2.57-4.07-4.25-8.76-4.84-13.54-.03-.25-.06-.5-.08-.75-.06-.63-1.06-.64-1,0h0Z"/>
  <path class="cls-2" d="M186.97,160.01c4.42,5.81,5.5,14,2.56,20.72-.83,1.89-1.94,3.63-3.15,5.3-1.28,1.76-2.63,3.48-4.07,5.11-2.58,2.93-5.69,5.27-9.26,6.88-3.93,1.77-8.26,2.57-12.56,2.32-.64-.04-.64.96,0,1,7.89.45,15.88-2.61,21.4-8.28,1.57-1.62,2.97-3.4,4.35-5.19s2.65-3.58,3.65-5.57c1.72-3.38,2.48-7.19,2.25-10.98-.26-4.25-1.72-8.42-4.3-11.81-.38-.51-1.25,0-.86.5h0Z"/>
  <path class="cls-2" d="M33.31,288.57c3.23-.51,6.57-1.64,8.86-4.08,1.88-2,2.92-4.71,3.42-7.37,1.29-6.79-.43-14.37-4.69-19.84-1.2-1.54-2.71-2.76-3.97-4.25-1.37-1.62-2.49-3.45-3.38-5.37-1.82-3.92-2.95-8.41-3.01-12.74-.12-8.64,3.94-16.7,8.55-23.77,4.52-6.94,9.59-13.48,15.73-19.07.54-.5,1.1-.98,1.65-1.47.49-.42-.22-1.13-.71-.71-2.72,2.35-5.29,4.88-7.68,7.56-2.9,3.25-5.47,6.75-7.94,10.33-4.67,6.76-9.05,14.19-10.27,22.44-.64,4.33-.22,8.58.94,12.78s2.9,7.87,5.67,11.02c1.28,1.46,2.78,2.68,3.94,4.25,1.07,1.45,1.96,3.04,2.65,4.71,1.35,3.25,2,6.8,1.92,10.31-.07,3.07-.71,6.26-2.35,8.91-1.45,2.34-3.77,3.81-6.36,4.64-1.06.34-2.15.57-3.25.75-.63.1-.36,1.06.27.96h0Z"/>
  <path class="cls-2" d="M48.57,197.62c-1.07,11.34-3.78,22.69-9.3,32.72-1.23,2.23-2.51,4.42-3.42,6.81-1.12,2.93-1.64,6.1-1.28,9.23.27,2.38,1.09,4.61,2.12,6.76,1.45,3.02,3.13,5.97,4.86,8.84,1.22,2.03,2.56,3.98,4.01,5.86,1.02,1.32,2,2.63,2.78,4.11,2.52,4.77,4.32,10.33,3.96,15.77-.4,6.09-3.86,11.2-8.53,14.93-1.92,1.53-4.11,2.71-6.27,3.85-2.89,1.52-5.8,3.01-8.62,4.66-2.25,1.32-4.73,2.51-6.63,4.33s-2.95,3.99-3.51,6.42c-.67,2.86-.45,5.84.52,8.6.58,1.66,1.34,3.26,2.06,4.86s1.42,3.15,2.19,4.69c1.24,2.5,2.61,4.99,4.46,7.1s4.05,3.66,6.5,4.84c4.24,2.06,8.98,2.92,13.66,3.17,1.82.09,3.66.14,5.48,0,2.74-.2,5.41-.85,8.03-1.63,3.23-.96,6.51-1.94,9.62-3.25,1.68-.71,3.47-1.55,4.71-2.93,3.12-3.48,2.46-10.1-1.28-12.89-1.77-1.32-4.06-1.8-6.11-2.52-3.27-1.15-6.33-2.75-9.17-4.74-2.25-1.57-4.58-3.4-6.19-5.66-.34-.47-.98-1.31-.85-1.95s1.6-.37,2.08-.35c3.13.16,6.06-.41,8.75-2.07,2.31-1.43,4.2-3.41,5.85-5.54,3.82-4.96,6.76-10.52,8.12-16.66.93-4.21,1.23-8.61.78-12.9-.29-2.78-.87-5.52-1.74-8.17-.2-.61-1.17-.35-.96.27,3.29,10.06,2.29,21.47-2.9,30.73-1.35,2.41-2.95,4.78-4.7,6.91s-3.82,4.07-6.34,5.27c-1.38.66-2.89,1.08-4.42,1.19-1.31.09-2.63-.15-3.93-.04-.78.07-1.49.46-1.58,1.31-.07.71.29,1.43.65,2.02,1.33,2.16,3.42,3.9,5.41,5.43,2.63,2.02,5.51,3.74,8.57,5.03,1.32.55,2.66,1.02,4.02,1.47,1.03.34,2.08.66,3.04,1.15,2.29,1.16,3.53,3.51,3.79,6.02.21,2.06-.2,4.46-1.65,6.04-1.31,1.42-3.24,2.24-5,2.94-3.16,1.26-6.46,2.26-9.73,3.19-2.52.72-5.07,1.26-7.69,1.38-8.85.4-19.44-1.36-25.04-8.92-1.78-2.4-3.11-5.11-4.36-7.8-.78-1.66-1.52-3.34-2.25-5.02-.52-1.19-1.02-2.39-1.34-3.66-.78-3.06-.52-6.38.8-9.26,1.05-2.3,2.84-4.02,4.99-5.31,2.54-1.53,5.12-3.01,7.73-4.41,2.47-1.32,4.99-2.55,7.41-3.95,4.2-2.42,8.07-5.89,10.36-10.21,3.13-5.92,2.67-12.76.44-18.9-.72-1.99-1.55-3.99-2.59-5.83-.78-1.38-1.75-2.62-2.72-3.88-1.51-1.96-2.88-4.01-4.13-6.14-1.68-2.84-3.35-5.74-4.74-8.74-.98-2.12-1.7-4.33-1.85-6.67-.21-3.22.52-6.38,1.82-9.31.97-2.18,2.23-4.21,3.34-6.32,1-1.88,1.9-3.81,2.71-5.78,2.18-5.25,3.73-10.75,4.79-16.33.64-3.36,1.1-6.75,1.42-10.15.06-.64-.94-.64-1,0h0Z"/>
  <path class="cls-2" d="M140.44,213.97c.7,7.69-.12,15.4-2.55,22.73-2.12,6.4-5.44,12.36-9.28,17.88-2.39,3.45-5.36,6.44-8.91,8.7s-7.31,3.62-11.23,4.77c-7.67,2.25-15.6,3.6-23.53,4.56-5.77.7-11.58,1.18-17.39,1.46-.39.02-.78.04-1.17.05-.64.03-.64,1.03,0,1,5.45-.24,10.89-.65,16.31-1.25,8-.89,15.99-2.14,23.77-4.23,3.89-1.04,7.78-2.26,11.36-4.13,3.79-1.98,7.17-4.73,9.86-8.05,2.16-2.67,3.97-5.64,5.71-8.6s3.17-5.86,4.38-8.96c2.78-7.12,4.12-14.72,3.88-22.36-.04-1.2-.12-2.4-.23-3.59-.06-.64-1.06-.64-1,0h0Z"/>
  <path class="cls-2" d="M133.04,248.25c4.5,5.64,7.99,12.12,10.26,18.96,3.78,11.37,3.94,23.71.41,35.16-1.41,4.57-3.37,8.96-5.82,13.07-.33.55.53,1.06.86.5,5.29-8.88,8.31-19.08,8.51-29.43s-2.68-21.35-7.93-30.67c-1.64-2.91-3.51-5.68-5.59-8.29-.4-.5-1.1.21-.71.71h0Z"/>
  <path class="cls-2" d="M110.16,268.18c2.07,2.94,3.84,6.06,5.43,9.29,1.76,3.59,3.24,7.35,4.1,11.27,1.54,7.01,1.09,14.61-.55,21.56-.92,3.89-2.27,7.68-4.15,11.21-.95,1.79-2.04,3.51-3.26,5.14-1.34,1.78-3.11,3.34-4.18,5.31-.69,1.28-.9,2.9,0,4.11.71.97,1.82,1.62,2.86,2.18,2.3,1.24,4.78,2.16,7.23,3.04,3.72,1.33,7.5,2.51,11.29,3.61s7.68,2.18,11.53,3.21c1.79.48,3.59.92,5.4,1.29,2.18.44,4.35.95,6.51,1.48s4.39,1.19,6.61,1.62,4.31.46,6.48.14,4.04-.92,5.97-1.68c1.8-.71,3.68-1.37,5.37-2.32,3.01-1.68,4.18-5.06,4.14-8.37-.04-3.64-1.35-7.35-3.82-10.05s-6.15-4.37-9.59-5.81c-7.13-3.01-14.48-5.48-21.96-7.47-2.36-.63-4.73-1.21-7.11-1.74-.63-.14-.89.82-.27.96,8.27,1.86,16.42,4.27,24.33,7.31,3.22,1.24,6.51,2.49,9.54,4.17,3.26,1.81,5.85,4.36,7.05,7.95,1.13,3.34,1.39,7.65-.89,10.59-.89,1.15-2.2,1.79-3.51,2.36-1.83.81-3.71,1.58-5.62,2.2-2.14.7-4.35,1.12-6.61,1.12s-4.2-.51-6.26-1.04c-2.95-.76-5.91-1.52-8.89-2.15-4.95-1.04-9.81-2.39-14.68-3.76-3.54-.99-7.06-2.03-10.56-3.17-3.14-1.02-6.28-2.08-9.29-3.44-1.35-.61-2.86-1.31-3.92-2.26-.34-.3-.49-.47-.67-.78-.04-.06-.07-.12-.1-.19-.06-.11.02.08-.04-.1-.04-.12-.07-.23-.09-.35-.39-2.05,1.62-3.88,2.81-5.27,1.34-1.55,2.57-3.19,3.65-4.93,2.06-3.3,3.63-6.9,4.77-10.62,2.07-6.76,2.83-14.05,2.1-21.09s-3.71-14.17-7.35-20.45c-.92-1.58-1.9-3.12-2.95-4.61-.37-.52-1.23-.02-.86.5h0Z"/>
  <path class="cls-2" d="M161.35,201.02c1.42,7.49,3.05,14.93,4.89,22.33.9,3.64,1.82,7.28,2.88,10.88.39,1.32.78,2.67,1.37,3.92,3,6.46,8.77,11.12,13.28,16.47,2.32,2.76,4.38,5.78,5.57,9.21,1.1,3.18,1.52,6.57,1.31,9.93-.42,6.7-3.35,13.3-8.41,17.77-2.96,2.62-6.71,4.63-10.73,4.75-3.63.1-7.1-1.33-9.97-3.49s-5.36-5.22-7.02-8.52c-.52-1.03-.99-2.15-1.01-3.32-.02-.94.29-1.8.77-2.61.84-1.43,2.03-2.63,2.66-4.18.72-1.76.29-3.54-.51-5.19-.91-1.87-1.99-3.59-2.68-5.56-1.34-3.84-1.71-8.04-1.02-12.06.35-2.04.99-3.99,1.82-5.89s1.55-3.75,1.4-5.86c-.17-2.43-1.32-4.58-2.27-6.78-2.64-6.12-5.21-12.26-7.82-18.39-.87-2.05-1.75-4.1-2.62-6.15-.25-.59-1.11-.08-.86.5,3.07,7.18,6.11,14.38,9.17,21.57.83,1.96,1.69,3.9,2.53,5.85.71,1.66,1.12,3.53.8,5.33-.38,2.11-1.55,3.99-2.22,6.01-1.28,3.81-1.56,7.92-.93,11.88.32,2,.88,3.95,1.68,5.81s2.17,3.66,2.73,5.67c1.08,3.85-3.36,5.97-3.62,9.58-.14,2.04.93,4.03,1.94,5.73.95,1.6,2.06,3.1,3.32,4.47,2.45,2.67,5.53,4.87,9.02,5.93s7.47.72,10.91-.89c6.46-3.01,11.04-9.27,12.94-16.03s1.33-13.71-1.89-19.69c-3.64-6.77-9.93-11.49-14.45-17.58-1.32-1.77-2.63-3.82-3.34-5.78-.79-2.17-1.37-4.42-1.96-6.64-2.18-8.14-4.09-16.35-5.76-24.61-.31-1.55-.62-3.1-.91-4.65-.12-.63-1.08-.36-.96.27h0Z"/>
  <path class="cls-2" d="M167.54,273.01c1.08,3.68.65,7.73-1.24,11.07-.72,1.27-1.64,2.52-2.86,3.34-1.41.94-3.07,1.11-4.66.54-1.93-.7-3.41-2.31-4.43-4.04-.33-.55-1.19-.05-.86.5,1.86,3.17,5.59,6.03,9.4,4.42,3.38-1.42,5.34-5.54,5.97-8.93.44-2.39.33-4.85-.35-7.18-.18-.62-1.15-.35-.96.27h0Z"/>
  <path class="cls-2" d="M176.56,272.6c3.32,6.52,3.06,14.3-.64,20.6-.59,1-1.25,1.96-1.99,2.85-.41.49.3,1.2.71.71,4.52-5.49,6.35-12.86,4.62-19.8-.42-1.69-1.05-3.32-1.83-4.87-.29-.57-1.16-.07-.86.5h0Z"/>
  <path class="cls-2" d="M183.88,269.81c3.3,5.23,4.05,11.68,2.1,17.55-.2.61.76.87.96.27,2.03-6.1,1.23-12.88-2.21-18.32-.34-.54-1.21-.04-.86.5h0Z"/>
  <path class="cls-2" d="M29.19,197.37c-4.24,6.03-7.54,12.54-10.52,19.26-1.16,2.61-2.25,5.26-2.96,8.03s-.84,5.71-1.03,8.62c-.11,1.71-.46,3.35-1.22,4.89-.81,1.64-1.95,3.09-3.06,4.54-1.04,1.37-2.05,2.79-3.02,4.22-3.19,4.74-5.69,10.15-6.77,15.78-.59,3.08-.76,6.24-.55,9.37.07.96.17,1.91.3,2.86.06.46.19.93.21,1.39.02.42-.05.84-.04,1.26.02,1.16.23,2.33.57,3.44.44,1.49,1.12,2.91,1.83,4.3.64,1.25,1.38,2.45,2.26,3.55,1.87,2.33,4.39,3.97,7.31,4.59,2.67.57,5.42.92,8.15.75,3.24-.2,6.47-.81,9.66-1.39,1.4-.25,2.61-.93,3.11-2.33.47-1.3.27-2.89-.35-4.1s-1.5-2.34-2.42-3.36c-.74-.81-1.12-1.88-1.39-2.92-.63-2.48-.71-5.22-.33-7.75.14-.91.38-1.7.71-2.46.45-1.04.83-2.13,1.36-3.14.13-.26.27-.51.42-.76s.53-.62.61-.89c.05-.17.05-.02-.09-.08-.01,0-.14-.05-.07-.03-.08-.03-.07-.08-.08-.06-.02.03.05.12.02.04.02.08.05.15.07.23.05.18.08.4.09.52.23,1.94.11,3.94.04,5.89-.07,1.79-.17,3.58-.28,5.36-.04.64.96.64,1,0,.19-3.01.38-6.03.35-9.05,0-1.04.11-2.47-.39-3.43-.87-1.66-2.42,1.44-2.73,2.11-.9,1.92-1.79,3.87-2.06,5.99-.32,2.53-.24,5.21.38,7.69.27,1.09.67,2.2,1.37,3.09.81,1.03,1.66,1.96,2.33,3.1.72,1.22,1.06,3.08.16,4.3-.46.62-1.2.88-1.93,1.02-.91.18-1.84.32-2.76.47-2.85.48-5.74.99-8.64.96-1.38-.02-2.74-.21-4.11-.42s-2.74-.43-4.02-.95c-2.92-1.19-5.05-3.68-6.53-6.38-1.32-2.4-2.53-5.01-2.62-7.79-.03-.76.04-1.45-.08-2.21-.16-1.03-.28-2.06-.36-3.1-.13-1.72-.15-3.45-.05-5.17.37-6.06,2.48-11.85,5.5-17.07.87-1.5,1.81-2.97,2.86-4.36.07-.09-.06.09,0,0,.15-.2.28-.42.42-.63.51-.76,1.07-1.48,1.62-2.21,1.1-1.44,2.23-2.9,2.99-4.56,1.41-3.04,1.15-6.26,1.49-9.51.28-2.64.97-5.2,1.89-7.67,1.2-3.24,2.7-6.36,4.17-9.49s3-5.99,4.74-8.85c1.04-1.71,2.14-3.38,3.29-5.02.37-.53-.5-1.03-.86-.5h0Z"/>
  <path class="cls-2" d="M6.44,274.33c-.89,6.82,1.35,13.88,5.97,18.97.43.48,1.14-.23.71-.71-4.45-4.91-6.53-11.7-5.67-18.26.08-.64-.92-.63-1,0h0Z"/>
  <path class="cls-2" d="M17.83,276.11c-.62,6.3,1.74,12.75,6.26,17.18.46.45,1.17-.26.71-.71-4.35-4.26-6.56-10.42-5.97-16.47.06-.64-.94-.64-1,0h0Z"/>
  <path class="cls-2" d="M152.16,148.93c3.28,1.1,6.8,1.35,10.21.76s6.74-2.31,9.87-4.04c.56-.31.06-1.18-.5-.86-2.99,1.65-6.01,3.27-9.41,3.9s-6.72.34-9.9-.72c-.61-.2-.87.76-.27.96h0Z"/>
  <path class="cls-2" d="M59.82,338.06c4.11,2.6,6.62,7.33,6.51,12.18-.02.64.98.64,1,0,.12-5.21-2.61-10.26-7-13.04-.55-.34-1.05.52-.5.86h0Z"/>
  <path class="cls-2" d="M46.97,343.35c4.06,1.9,6.94,5.81,7.56,10.25.09.63,1.05.36.96-.27-.65-4.66-3.76-8.85-8.02-10.84-.58-.27-1.09.59-.5.86h0Z"/>
  <path class="cls-2" d="M162.67,332.86c6.99,1.35,12.69,7.24,13.83,14.26.1.63,1.07.36.96-.27-1.19-7.34-7.23-13.55-14.53-14.96-.63-.12-.9.84-.27.96h0Z"/>
  <path class="cls-2" d="M154.93,338.06c5.69,2.49,10.17,7.39,12.09,13.3.2.61,1.16.35.96-.27-2-6.14-6.63-11.3-12.55-13.9-.58-.26-1.09.61-.5.86h0Z"/>
  <ellipse class="cls-6" cx="85.45" cy="59.94" rx="8.64" ry="24"/>
  <ellipse class="cls-6" cx="170.96" cy="59.94" rx="8.64" ry="24"/>
  <path class="cls-2" d="M607.81,91.74c-.92-8.72-1.17-17.51-.7-26.27.18-3.4.5-6.79.87-10.18.46-4.21.95-8.42,1.78-12.57,1.31-6.56,3.75-12.76,7.06-18.57,3.6-6.3,8.42-11.91,14.45-16.01,2.74-1.87,5.64-3.64,8.72-4.89,3.88-1.58,8.05-2.31,12.23-1.92,6.81.63,12.62,4.21,17.68,8.59,4.77,4.13,8.37,9.31,10.95,15.05s4.13,11.76,5.1,17.88c.84,5.31,1.22,10.7,1.24,16.08.01,3.38-.1,6.77-.41,10.14-.03.36-.07.72-.1,1.08-.03.27.25.49.5.5,6.34.16,12.67.33,19.01.49.25,0,.53-.24.5-.5-.81-7.84-.81-15.75.11-23.58.33-2.82.79-5.63,1.36-8.41.76-3.73,1.54-7.47,2.77-11.08,1.92-5.66,5.14-10.93,9.17-15.34s9.17-7.88,14.92-9.67c5.33-1.65,11.13-2.02,16.56-.99s10.92,3.35,15.43,6.78c5.46,4.15,9.27,9.84,11.38,16.33,1.05,3.24,1.73,6.58,2.29,9.93.64,3.88,1.18,7.79,1.61,11.69.8,7.39.72,14.85.25,22.26-.5,7.85-1.59,15.66-3.26,23.35-.34,1.54-.69,3.08-1.07,4.61-.06.22.04.44.23.56,7.93,5.12,15.5,12.48,17.58,22.02,1.06,4.87.45,9.88-1.42,14.47s-4.65,8.34-7.86,11.83c-5.69,6.16-12.6,11.11-19.77,15.4-4.46,2.67-9.05,5.08-13.92,6.92-6.21,2.35-12.7,3.8-19.23,4.92-7.02,1.2-14.07,2.21-21.2,2.57s-13.89.17-20.81-.32-14.26-1.28-21.38-2.03-13.79-1.5-20.62-2.73-14.09-3.05-20.94-5.29c-6-1.97-12.04-3.89-17.92-6.2-4.69-1.85-9.33-3.98-13.46-6.9-3.78-2.68-6.98-6.07-9.29-10.09-5.21-9.07-6.59-20.61-2.58-30.37,3.52-8.57,10.92-15.04,19.51-18.26.77-.29,1.56-.55,2.35-.78.62-.18.36-1.14-.27-.96-7.02,1.99-13.61,6.34-18.11,12.08-4.05,5.17-6.42,11.52-6.78,18.08-.3,5.54.78,11.14,2.86,16.27,1.46,3.59,3.44,6.94,6.03,9.83,3.21,3.57,7.22,6.31,11.46,8.51,5.01,2.6,10.35,4.54,15.68,6.37,6.83,2.35,13.69,4.68,20.7,6.45,13.87,3.5,28.2,4.75,42.4,6.14,7.09.7,14.19,1.29,21.32,1.39s14.56-.31,21.78-1.29c6.73-.91,13.5-1.98,20.08-3.67,6.98-1.79,13.68-4.46,19.93-8.05s12.85-7.89,18.46-12.91c7.08-6.34,13.62-14.59,14.46-24.4.93-10.93-5.94-20.33-14.17-26.74-1.4-1.09-2.85-2.12-4.35-3.09l.23.56c1.8-7.27,3.1-14.66,3.86-22.11s1.12-15.35.7-22.99c-.23-4.2-.79-8.36-1.36-12.52-.5-3.61-1.05-7.22-1.9-10.76-1.54-6.43-4.25-12.45-8.85-17.28s-10.54-8.13-16.91-9.87c-5.19-1.41-10.63-1.63-15.93-.66-5.9,1.08-11.4,3.73-15.97,7.61-4.29,3.64-7.89,8.4-10.45,13.4-1.74,3.41-2.94,7.05-3.85,10.76-.79,3.24-1.47,6.51-2.01,9.8-1.19,7.18-1.61,14.48-1.29,21.75.1,2.24.27,4.47.5,6.7l.5-.5c-6.34-.16-12.67-.33-19.01-.49l.5.5c.29-2.73.43-5.48.49-8.22.11-5.17-.11-10.36-.72-15.5-.73-6.17-2.01-12.3-4.17-18.14s-5.39-11.72-9.82-16.38c-1.92-2.02-4.08-3.85-6.32-5.51-2.8-2.08-5.89-3.8-9.22-4.89-4.03-1.31-8.33-1.62-12.5-.89-3.7.65-7.18,2.13-10.42,4.01s-6.33,3.98-9.1,6.49-5.19,5.32-7.31,8.37c-3.58,5.15-6.45,11-8.29,16.99-1.17,3.82-1.9,7.76-2.45,11.72s-1,7.91-1.35,11.88c-.72,8.1-.81,16.26-.3,24.37.15,2.44.36,4.87.61,7.3.07.63,1.07.64,1,0Z"/>
  <path class="cls-2" d="M679.73,63.03c-.01,8.84-1.45,17.79-4.86,25.98-2.62,6.28-6.59,12.58-12.48,16.25-2.42,1.51-5.17,2.51-8.03,2.69s-5.67-.43-8.22-1.67c-6.05-2.95-10.28-8.77-13.15-14.68-3.78-7.79-5.57-16.53-5.95-25.15-.4-8.98.71-18.13,3.72-26.62,2.36-6.66,6.04-13.35,11.72-17.75,4.62-3.57,10.51-5.03,16.13-3.1,6.17,2.12,10.71,7.5,13.81,13.03,4.11,7.33,6.24,15.74,7,24.07.21,2.31.31,4.64.31,6.96,0,.64,1,.64,1,0-.01-9.06-1.51-18.24-5.05-26.61-2.72-6.44-6.83-12.82-12.9-16.55-2.55-1.56-5.43-2.57-8.42-2.76s-5.84.45-8.49,1.7c-6.23,2.93-10.66,8.89-13.63,14.92-3.91,7.95-5.78,16.86-6.19,25.67s.71,18.71,3.87,27.44c2.47,6.81,6.26,13.58,12.11,18.05,4.8,3.67,10.96,5.15,16.78,3.18,6.35-2.16,11.07-7.55,14.31-13.22,4.28-7.49,6.48-16.11,7.28-24.65.22-2.38.33-4.77.33-7.17,0-.64-1-.64-1,0Z"/>
  <path class="cls-2" d="M773.85,63.03c0,7.6-.91,15.23-3.05,22.54-1.68,5.75-4.13,11.53-8.04,16.14-1.7,2.01-3.7,3.78-6.06,4.96l.73.3c-1.08-7.69-7.42-13.91-15.22-14.47-2.7-.19-5.38.31-7.85,1.41l.68.18c-4.84-10.07-6.47-21.64-6.27-32.72.19-10.28,1.98-20.98,6.67-30.22,2.97-5.86,7.99-12.64,15.18-13.05s12.43,5.7,15.62,11.34c4.97,8.79,7,19.2,7.49,29.19.07,1.47.1,2.93.11,4.4,0,.64,1,.64,1,0-.01-10.7-1.71-21.79-6.38-31.5-3.02-6.3-8.1-13.38-15.59-14.35s-12.97,4.63-16.5,10.28c-5.4,8.64-7.67,19.18-8.38,29.23-.82,11.61.4,23.79,4.76,34.64.44,1.1.92,2.19,1.44,3.26.13.26.45.28.68.18,3.79-1.68,8.18-1.74,12.01-.17,3.23,1.33,5.95,3.79,7.66,6.83,1.01,1.79,1.64,3.76,1.93,5.8.05.34.48.43.73.3,4.64-2.33,7.96-6.75,10.37-11.23,3.27-6.1,5.17-12.9,6.24-19.71.7-4.49,1.04-9.02,1.04-13.56,0-.64-1-.64-1,0Z"/>
  <path class="cls-2" d="M730.65,108.1c-.05,7.76-5.29,14.86-12.91,16.72-6.53,1.59-13.5-1.1-17.39-6.54s-4.32-12.77-1.1-18.6c3.19-5.78,9.55-9.27,16.15-8.68,7.52.67,13.64,6.63,14.98,13.98.19,1.03.27,2.08.28,3.12,0,.64,1,.64,1,0-.05-8.03-5.37-15.44-13.2-17.57-6.94-1.88-14.36.8-18.67,6.49s-4.84,13.55-1.51,19.79c3.29,6.17,10.07,10,17.07,9.4,8.03-.69,14.67-6.99,16.04-14.9.18-1.06.27-2.14.28-3.22,0-.64-1-.64-1,0Z"/>
  <path class="cls-2" d="M756.6,109.37c-.03,5.04-2.38,9.93-6.47,12.93s-9.91,3.85-14.81,1.86c-2.89-1.17-5.36-3.25-7.09-5.83v.5c4.19-5.9,4.52-13.85.88-20.1l-.08.61c3.55-4.4,9.25-6.67,14.86-5.61,4.47.85,8.37,3.7,10.62,7.65,1.39,2.44,2.09,5.19,2.1,8,0,.64,1,.64,1,0-.03-5.11-2.29-10.07-6.3-13.28s-9.68-4.47-14.77-2.98c-3.24.94-6.1,2.9-8.21,5.52-.14.18-.2.4-.08.61,3.47,5.96,3.11,13.47-.88,19.09-.1.14-.09.37,0,.5,3.32,4.96,9.1,7.91,15.09,7.39,5.26-.46,10.02-3.51,12.73-8.03,1.59-2.66,2.41-5.72,2.42-8.82,0-.64-1-.64-1,0Z"/>
  <path class="cls-2" d="M672.09,61.3c0,4.63-.41,9.29-1.51,13.8-.73,3.02-1.74,6.44-3.9,8.78-.64.69-1.45,1.33-2.41,1.45s-1.79-.29-2.47-.88c-2.26-1.93-3.34-5.19-4.12-7.96-1.22-4.33-1.73-8.85-1.85-13.33-.13-4.74.18-9.53,1.15-14.18.68-3.29,1.64-6.82,3.66-9.57,1.15-1.57,2.96-2.83,4.86-1.69,1,.6,1.73,1.58,2.33,2.56.86,1.4,1.47,2.94,1.98,4.5,1.34,4.13,1.95,8.5,2.18,12.83.07,1.23.09,2.46.1,3.69,0,.64,1,.64,1,0,0-4.89-.45-9.85-1.68-14.6-.8-3.1-1.93-6.64-4.28-8.95-1.64-1.62-3.86-1.99-5.75-.54-2.44,1.87-3.65,5.21-4.5,8.04-1.36,4.54-1.92,9.34-2.05,14.07-.14,4.99.21,10.05,1.26,14.94.74,3.4,1.79,7.09,4.01,9.86,1.4,1.75,3.55,2.89,5.71,1.73,2.53-1.36,3.86-4.58,4.75-7.14,1.51-4.32,2.16-8.95,2.41-13.5.07-1.3.11-2.61.11-3.91,0-.64-1-.64-1,0Z"/>
  <path class="cls-2" d="M757.6,61.3c0,4.63-.41,9.29-1.51,13.8-.73,3.02-1.74,6.44-3.9,8.78-.64.69-1.45,1.33-2.41,1.45s-1.79-.29-2.47-.88c-2.26-1.93-3.34-5.19-4.12-7.96-1.22-4.33-1.73-8.85-1.85-13.33-.13-4.74.18-9.53,1.15-14.18.68-3.29,1.64-6.82,3.66-9.57,1.15-1.57,2.96-2.83,4.86-1.69,1,.6,1.73,1.58,2.33,2.56.86,1.4,1.47,2.94,1.98,4.5,1.34,4.13,1.95,8.5,2.18,12.83.07,1.23.09,2.46.1,3.69,0,.64,1,.64,1,0,0-4.89-.45-9.85-1.68-14.6-.8-3.1-1.93-6.64-4.28-8.95-1.64-1.62-3.86-1.99-5.75-.54-2.44,1.87-3.65,5.21-4.5,8.04-1.36,4.54-1.92,9.34-2.05,14.07-.14,4.99.21,10.05,1.26,14.94.74,3.4,1.79,7.09,4.01,9.86,1.4,1.75,3.55,2.89,5.71,1.73,2.53-1.36,3.86-4.58,4.75-7.14,1.51-4.32,2.16-8.95,2.41-13.5.07-1.3.11-2.61.11-3.91,0-.64-1-.64-1,0Z"/>
  <path class="cls-2" d="M591.28,148.35c-7,4.66-9.9,13.4-9.37,21.53.6,9.24,5.77,17.28,12.58,23.3,4.06,3.59,8.64,6.53,13.43,9.03.18.1.46.09.61-.08,4.6-5.49,10.14-10.15,16.36-13.72,3.11-1.78,6.38-3.29,9.76-4.49s6.89-1.76,9.61-4.01c2.47-2.05,3.76-6.08,1.53-8.76-.41-.5-1.11.21-.71.71,2.07,2.5.21,6.17-2.08,7.76-1.43.99-3.08,1.58-4.72,2.1s-3.25,1-4.85,1.59c-6.33,2.35-12.24,5.77-17.46,10.05-2.96,2.43-5.69,5.13-8.14,8.06l.61-.08c-8.13-4.25-15.95-9.87-20.91-17.74-2.29-3.64-3.89-7.66-4.44-11.94-.51-4-.2-8.13,1.04-11.97,1.37-4.21,3.94-8.02,7.66-10.49.53-.35.03-1.22-.5-.86h0Z"/>
  <path class="cls-2" d="M645.31,176.63c1.81,2.68,3.6,5.4,4.91,8.37s1.97,6.22,1.65,9.55c-.16,1.67-.41,3.35-.19,5.02.2,1.52.85,2.87,1.82,4.05,1.87,2.28,4.66,3.94,7.34,5.09,3.25,1.39,6.78,2.05,10.31,1.91.64-.03.64-1.03,0-1-3.09.13-6.16-.37-9.05-1.47s-5.65-2.69-7.65-4.94c-1.03-1.16-1.69-2.54-1.83-4.09-.16-1.68.14-3.37.28-5.04.25-3.07-.35-6.06-1.53-8.89-1.34-3.24-3.27-6.18-5.22-9.08-.36-.53-1.22-.03-.86.5h0Z"/>
  <path class="cls-2" d="M662.79,209.47c.44,4.53,1.77,8.98,3.86,13.01,2.6,5,6.5,9.22,11.19,12.33,5.55,3.67,12.23,5.61,18.88,4.69,5.19-.72,10.27-3.19,14.18-6.65,3.16-2.8,5.4-6.3,7.18-10.09s3.17-7.44,4.08-11.4c.17-.76.33-1.52.47-2.29l-.48.37c5.88-.28,11.64-3.1,15.1-7.92,3.94-5.48,4.21-12.81,2.23-19.09-1.16-3.68-3.28-7.01-6.04-9.7-.46-.45-1.17.26-.71.71,4.21,4.09,6.59,9.6,6.92,15.44.21,3.69-.45,7.43-2.31,10.66s-4.86,5.82-8.34,7.31c-2.15.92-4.5,1.48-6.84,1.59-.2,0-.44.15-.48.37-.67,3.68-1.73,7.29-3.21,10.73-1.55,3.62-3.3,7.23-5.9,10.23-3.92,4.52-9.52,7.63-15.42,8.67s-12.14-.52-17.3-3.55c-4.52-2.66-8.43-6.39-11.17-10.86-2.55-4.16-4.21-8.94-4.8-13.79-.03-.25-.06-.5-.08-.76-.06-.63-1.06-.64-1,0h0Z"/>
  <path class="cls-2" d="M765.31,163.65c4.42,5.95,5.47,14.2,2.62,21.06-.82,1.98-1.97,3.82-3.21,5.56s-2.62,3.54-4.05,5.2c-2.58,2.99-5.7,5.41-9.29,7.07-3.91,1.8-8.25,2.63-12.55,2.37-.64-.04-.64.96,0,1,7.97.47,15.99-2.74,21.47-8.54,1.55-1.64,2.93-3.44,4.28-5.23s2.65-3.67,3.65-5.7c1.72-3.47,2.48-7.37,2.25-11.24-.26-4.32-1.71-8.57-4.3-12.06-.38-.51-1.25-.01-.86.5h0Z"/>
  <path class="cls-2" d="M611.66,295.14c3.27-.53,6.65-1.72,8.93-4.24,1.88-2.09,2.9-4.88,3.39-7.61,1.23-6.86-.44-14.52-4.68-20.09-1.2-1.58-2.72-2.85-3.99-4.37-1.39-1.66-2.5-3.55-3.4-5.52-1.83-4.03-2.95-8.64-3.01-13.07-.11-8.77,3.91-16.99,8.51-24.23s9.6-13.82,15.78-19.58c.54-.5,1.08-1,1.64-1.48.48-.43-.23-1.13-.71-.71-2.74,2.43-5.33,5.03-7.73,7.8-2.9,3.34-5.48,6.93-7.95,10.59-4.67,6.92-9.01,14.51-10.21,22.89-.64,4.43-.21,8.78.96,13.09s2.92,8.07,5.73,11.3c1.28,1.48,2.76,2.73,3.91,4.33,1.05,1.46,1.92,3.06,2.59,4.73,1.34,3.32,2,6.92,1.93,10.5-.06,3.13-.68,6.38-2.29,9.1-1.44,2.43-3.76,3.97-6.41,4.84-1.06.35-2.15.59-3.25.77-.63.1-.36,1.07.27.96h0Z"/>
  <path class="cls-2" d="M626.91,202.13c-1.06,11.5-3.72,23.02-9.19,33.27-1.2,2.25-2.48,4.44-3.4,6.82-1.17,3.01-1.75,6.26-1.44,9.49.22,2.36.96,4.58,1.93,6.73,1.39,3.06,3.06,6.02,4.73,8.93,1.26,2.19,2.64,4.29,4.15,6.31.99,1.32,1.99,2.63,2.78,4.09,1.05,1.93,1.88,4.02,2.59,6.1,1.04,3.05,1.69,6.24,1.62,9.47-.08,3.63-1.12,7.16-3.08,10.22-1.34,2.08-3.08,3.92-4.94,5.55s-4.05,2.89-6.22,4.08c-2.81,1.53-5.65,3-8.41,4.62-1.24.73-2.46,1.5-3.71,2.21-1.14.65-2.24,1.36-3.22,2.23-1.93,1.7-3.18,3.93-3.86,6.4-.81,2.97-.71,6.16.25,9.08.49,1.5,1.15,2.93,1.77,4.38.71,1.65,1.44,3.29,2.2,4.92,1.22,2.59,2.55,5.17,4.33,7.43s3.94,3.95,6.39,5.26c4.25,2.27,9.09,3.24,13.86,3.54,1.8.11,3.62.16,5.42.06,2.72-.16,5.38-.76,7.98-1.54,3.32-.99,6.68-2.02,9.88-3.37,1.76-.74,3.64-1.62,4.94-3.06,3.15-3.5,2.57-10.24-1.13-13.14-1.78-1.39-4.12-1.9-6.21-2.65-3.26-1.17-6.31-2.81-9.13-4.82-2.28-1.63-4.64-3.53-6.25-5.85-.34-.49-.96-1.32-.83-1.97s1.73-.38,2.24-.36c3.12.16,6.06-.5,8.7-2.2,2.33-1.5,4.22-3.56,5.87-5.77,3.83-5.12,6.72-10.83,8.05-17.11.89-4.25,1.17-8.66.73-12.99-.29-2.83-.87-5.61-1.74-8.32-.2-.61-1.16-.35-.96.27,3.27,10.23,2.32,21.81-2.81,31.27-1.33,2.46-2.91,4.86-4.65,7.06s-3.72,4.15-6.19,5.43c-1.46.75-3.07,1.24-4.71,1.36-1.31.1-2.63-.16-3.93-.04-.79.07-1.49.48-1.58,1.32-.07.72.28,1.44.64,2.04,1.31,2.19,3.39,3.98,5.37,5.54,2.72,2.14,5.69,3.95,8.88,5.29,1.28.54,2.59,1,3.91,1.44,1.02.34,2.06.68,3.01,1.19,2.28,1.23,3.47,3.7,3.7,6.22.19,2.13-.25,4.59-1.77,6.19-1.39,1.46-3.41,2.31-5.24,3.04-3.16,1.25-6.46,2.29-9.73,3.23-2.62.75-5.28,1.27-8.02,1.34-9.07.21-19.39-1.78-24.81-9.79-1.7-2.52-3-5.3-4.24-8.06-.76-1.7-1.5-3.4-2.23-5.12-.48-1.13-.89-2.3-1.15-3.5-.69-3.18-.32-6.6,1.13-9.52,1.13-2.28,3.02-3.93,5.18-5.21,2.63-1.55,5.24-3.14,7.92-4.6,2.49-1.35,5.03-2.62,7.45-4.1,4.18-2.57,8-6.32,10.08-10.81,2.83-6.11,2.15-12.96-.14-19.12-.72-1.93-1.51-3.87-2.52-5.66-.82-1.44-1.85-2.73-2.83-4.05-1.55-2.09-2.94-4.28-4.22-6.54-1.6-2.82-3.22-5.67-4.53-8.64-1.01-2.28-1.67-4.67-1.74-7.17-.09-3.18.69-6.29,1.98-9.17.96-2.15,2.18-4.16,3.26-6.26,1.01-1.96,1.92-3.97,2.74-6.01,2.14-5.32,3.66-10.87,4.71-16.5.64-3.44,1.1-6.91,1.42-10.4.06-.64-.94-.64-1,0h0Z"/>
  <path class="cls-2" d="M718.78,218.84c.69,7.73-.09,15.47-2.43,22.87-2.08,6.57-5.38,12.65-9.19,18.37-2.34,3.5-5.21,6.58-8.71,8.94s-7.23,3.81-11.14,5c-7.75,2.37-15.8,3.79-23.83,4.79-5.82.73-11.67,1.22-17.53,1.51-.4.02-.81.04-1.21.06-.64.03-.64,1.03,0,1,5.48-.24,10.96-.67,16.41-1.29,8.11-.92,16.21-2.23,24.08-4.42,3.92-1.09,7.83-2.37,11.39-4.35s7.03-4.91,9.65-8.29c2.1-2.71,3.88-5.71,5.59-8.68s3.21-6.13,4.42-9.37c2.7-7.21,3.98-14.88,3.72-22.57-.04-1.19-.12-2.38-.22-3.57-.06-.64-1.06-.64-1,0h0Z"/>
  <path class="cls-2" d="M711.39,253.9c4.53,5.81,8.05,12.51,10.31,19.54,3.74,11.61,3.88,24.18.36,35.86-1.4,4.66-3.36,9.13-5.81,13.33-.32.56.54,1.06.86.5,5.33-9.15,8.33-19.61,8.51-30.2s-2.68-21.75-7.95-31.3c-1.63-2.96-3.49-5.78-5.57-8.45-.4-.51-1.1.21-.71.71h0Z"/>
  <path class="cls-2" d="M688.51,274.29c2.09,3.04,3.88,6.27,5.47,9.6,1.75,3.66,3.21,7.49,4.06,11.46,1.52,7.11,1.09,14.78-.51,21.84-.89,3.93-2.21,7.78-4.04,11.37-.94,1.83-2,3.6-3.2,5.27-1.31,1.81-2.97,3.39-4.14,5.29-.82,1.34-1.25,3.15-.31,4.53.66.97,1.74,1.64,2.74,2.21,2.23,1.26,4.65,2.19,7.04,3.07,3.74,1.38,7.54,2.61,11.37,3.74s7.72,2.25,11.6,3.31c1.83.5,3.67.98,5.53,1.36,2.18.45,4.35.96,6.51,1.51s4.38,1.21,6.6,1.67,4.35.49,6.53.17c2.03-.29,3.98-.91,5.87-1.67s3.68-1.41,5.39-2.36c3.06-1.69,4.26-5.08,4.26-8.44,0-3.7-1.25-7.52-3.7-10.32s-6.21-4.57-9.71-6.08c-7.14-3.07-14.5-5.61-21.99-7.65-2.34-.64-4.7-1.23-7.07-1.77-.63-.14-.89.82-.27.96,8.29,1.91,16.45,4.38,24.37,7.49,3.24,1.27,6.55,2.56,9.58,4.3,3.3,1.89,5.85,4.56,7.02,8.24,1.09,3.42,1.33,7.81-1,10.79-.91,1.17-2.28,1.82-3.61,2.41-1.82.81-3.67,1.59-5.56,2.21-2.1.69-4.28,1.11-6.5,1.11s-4.28-.55-6.38-1.1c-2.94-.77-5.88-1.55-8.85-2.18-5.05-1.08-10-2.51-14.97-3.93-3.58-1.03-7.15-2.11-10.68-3.3-3.05-1.02-6.1-2.09-9.02-3.46-1.33-.62-2.78-1.32-3.81-2.31-.33-.32-.41-.41-.62-.79-.11-.19-.05-.04-.12-.29s-.11-.46-.12-.7c-.08-2.09,1.96-3.9,3.18-5.36,1.28-1.55,2.45-3.19,3.49-4.91,2.02-3.37,3.56-7.02,4.67-10.78,2.04-6.89,2.78-14.28,2.04-21.43-.75-7.36-3.67-14.37-7.29-20.77-.93-1.65-1.94-3.25-3.01-4.81-.36-.53-1.23-.03-.86.5h0Z"/>
  <path class="cls-2" d="M739.7,205.59c1.41,7.6,3.03,15.16,4.85,22.68.9,3.73,1.82,7.46,2.88,11.15.4,1.38.79,2.78,1.38,4.09,2.91,6.52,8.64,11.3,13.12,16.69,2.35,2.83,4.45,5.92,5.67,9.42,1.14,3.24,1.58,6.7,1.41,10.12-.34,6.77-3.14,13.52-8.12,18.18-2.93,2.75-6.73,4.95-10.83,5.13-3.62.16-7.07-1.25-9.94-3.39-3.02-2.26-5.45-5.33-7.15-8.68-.97-1.9-1.58-3.95-.54-5.95.78-1.5,2.01-2.73,2.71-4.28.81-1.79.55-3.58-.23-5.33-.87-1.94-2.01-3.71-2.72-5.72-1.37-3.88-1.79-8.11-1.17-12.19.31-2.07.89-4.1,1.71-6.03s1.68-3.89,1.6-6.08c-.09-2.56-1.26-4.82-2.24-7.13-2.64-6.26-5.21-12.54-7.82-18.81-.87-2.1-1.75-4.19-2.62-6.29-.24-.59-1.21-.33-.96.27,3.07,7.35,6.1,14.71,9.16,22.05.84,2.03,1.71,4.04,2.56,6.06.71,1.68,1.11,3.54.84,5.36-.32,2.2-1.55,4.18-2.24,6.27-1.29,3.93-1.58,8.15-.93,12.23.32,2.05.89,4.05,1.7,5.96s2.19,3.76,2.73,5.83c1,3.86-3.38,6.05-3.64,9.68-.15,2.08.92,4.11,1.93,5.86.94,1.63,2.06,3.17,3.32,4.57,2.44,2.72,5.51,4.98,9.03,6.08,3.72,1.16,7.62.71,11.1-1,6.46-3.17,10.93-9.59,12.78-16.42,1.81-6.67,1.27-14.04-2.02-20.18-3.68-6.89-10.02-11.75-14.52-18.03-1.03-1.44-1.98-2.95-2.73-4.56-.19-.4-.31-.71-.48-1.21-.8-2.26-1.39-4.6-1.99-6.91-2.16-8.31-4.07-16.68-5.73-25.11-.3-1.55-.6-3.09-.89-4.64-.12-.63-1.08-.36-.96.27h0Z"/>
  <path class="cls-2" d="M745.88,279.23c1.09,3.76.65,7.92-1.25,11.35-.71,1.29-1.62,2.57-2.85,3.4-1.41.96-3.09,1.15-4.68.54-1.93-.74-3.39-2.37-4.4-4.13-.32-.56-1.18-.06-.86.5,1.82,3.18,5.51,6.14,9.34,4.54,1.52-.64,2.68-1.86,3.6-3.19,1.22-1.78,2.04-3.84,2.43-5.96.44-2.44.33-4.95-.36-7.33-.18-.62-1.14-.35-.96.27h0Z"/>
  <path class="cls-2" d="M754.91,278.81c3.32,6.66,3.07,14.6-.62,21.05-.59,1.03-1.26,2.03-2,2.95-.4.5.3,1.21.71.71,4.53-5.62,6.34-13.12,4.64-20.16-.42-1.75-1.05-3.45-1.85-5.06-.29-.58-1.15-.07-.86.5h0Z"/>
  <path class="cls-2" d="M762.23,275.96c3.31,5.37,4.05,11.97,2.1,17.96-.2.61.77.88.96.27,2.03-6.24,1.24-13.14-2.21-18.73-.34-.55-1.2-.05-.86.5h0Z"/>
  <path class="cls-2" d="M607.54,201.88c-4.25,6.18-7.54,12.83-10.52,19.7-1.17,2.7-2.28,5.44-2.98,8.3s-.81,5.79-1.01,8.75c-.11,1.73-.46,3.42-1.22,4.99-.82,1.71-2,3.21-3.12,4.73-1.03,1.38-2.03,2.82-2.97,4.26-3.2,4.88-5.69,10.42-6.76,16.18-.59,3.16-.75,6.39-.53,9.6.07.96.17,1.92.3,2.87.06.47.19.96.21,1.43.01.34-.04.69-.05,1.03,0,1.19.2,2.39.51,3.53.43,1.54,1.1,3,1.81,4.43.65,1.3,1.38,2.56,2.27,3.71,1.85,2.37,4.35,4.1,7.3,4.76,2.71.6,5.52.97,8.3.78,3.25-.22,6.51-.82,9.7-1.43,1.46-.28,2.67-1.12,3.07-2.61.39-1.41.1-3-.61-4.26s-1.56-2.22-2.42-3.3c-.7-.89-1.05-2.05-1.29-3.14-.56-2.53-.63-5.31-.2-7.87.15-.91.45-1.72.81-2.57.42-1.01.79-2.05,1.3-3.02.15-.29.3-.57.47-.85.05-.08.57-.78.57-.78.04.08-.39-.07-.34-.08.03,0,0-.06.01.02.01.13-.01-.06.03.06.02.07.04.15.06.22.06.23.07.39.1.59.21,1.98.11,4.01.03,5.99-.07,1.82-.17,3.64-.28,5.46-.04.64.96.64,1,0,.19-3.07.38-6.15.35-9.22,0-1.07.11-2.52-.38-3.51-.85-1.71-2.38,1.36-2.7,2.02-.53,1.11-.95,2.29-1.43,3.42-.34.82-.53,1.67-.65,2.55-.35,2.58-.28,5.3.28,7.84.25,1.11.61,2.26,1.27,3.21.25.36.54.66.83.99.58.67,1.08,1.4,1.53,2.16.76,1.29,1.23,3.04.45,4.44-.41.74-1.15,1.08-1.94,1.25-.88.19-1.78.32-2.67.47-2.92.5-5.88,1.05-8.86,1.02-1.42-.02-2.81-.23-4.21-.45s-2.78-.46-4.06-1.02c-2.91-1.29-4.98-3.82-6.44-6.58-1.3-2.45-2.48-5.1-2.57-7.92-.02-.76.04-1.44-.08-2.2-.16-1.03-.28-2.07-.36-3.11-.14-1.79-.16-3.59-.05-5.38.37-6.15,2.45-12.05,5.46-17.39.87-1.55,1.82-3.06,2.88-4.5.03-.04.06-.08.09-.12.04-.06-.07.09-.06.08.12-.18.24-.36.36-.54.53-.81,1.1-1.58,1.68-2.35,1.1-1.48,2.23-2.97,2.99-4.66,1.41-3.11,1.15-6.39,1.49-9.7.27-2.67.95-5.27,1.86-7.79,1.19-3.3,2.69-6.49,4.15-9.68s3.05-6.24,4.83-9.22c1.03-1.72,2.12-3.41,3.25-5.07.37-.53-.5-1.03-.86-.5h0Z"/>
  <path class="cls-2" d="M584.78,280.59c-.89,6.94,1.32,14.15,5.97,19.39.43.48,1.13-.23.71-.71-4.48-5.05-6.53-12-5.67-18.68.08-.64-.92-.63-1,0h0Z"/>
  <path class="cls-2" d="M596.17,282.4c-.62,6.41,1.7,13,6.26,17.57.46.46,1.16-.25.71-.71-4.38-4.39-6.56-10.69-5.97-16.86.06-.64-.94-.64-1,0h0Z"/>
  <path class="cls-2" d="M730.5,152.31c3.28,1.12,6.8,1.38,10.21.78s6.75-2.37,9.87-4.13c.56-.32.06-1.18-.5-.86-2.99,1.69-6,3.34-9.41,3.99s-6.72.34-9.9-.74c-.61-.21-.87.76-.27.96h0Z"/>
  <path class="cls-2" d="M639.81,344.2c3.79,3.76,6.49,8.49,7.82,13.66.16.62,1.12.36.96-.27-1.37-5.33-4.17-10.22-8.08-14.1-.46-.45-1.16.25-.71.71h0Z"/>
  <path class="cls-2" d="M623.78,349.62c4.36,3.37,7.36,8.32,8.4,13.72.12.63,1.09.36.96-.27-1.1-5.67-4.3-10.79-8.86-14.32-.51-.39-1.01.48-.5.86h0Z"/>
  <path class="cls-2" d="M740.19,338.15c2.86,1.23,5.68,2.61,8.27,4.35,2.45,1.65,4.77,3.71,6.16,6.36.77,1.46,1.18,3.07,1.22,4.72.02.64,1.02.64,1,0-.16-6.59-5.75-10.98-11.07-13.86-1.65-.89-3.35-1.68-5.07-2.43-.58-.25-1.09.61-.5.86h0Z"/>
  <path class="cls-2" d="M728.51,343.61c6.72,2.61,12.02,8.43,14.02,15.35.18.62,1.14.35.96-.27-2.11-7.28-7.66-13.31-14.72-16.05-.6-.23-.86.73-.27.96h0Z"/>
</svg>